<svg xmlns="http://www.w3.org/2000/svg" viewBox="0 0 1640 859"><defs><style>.cls-1{fill:#8c9ebd;}.cls-2{fill:#be9bc6;}.cls-3{fill:#feb600;}.cls-4{fill:#fad755;}.cls-5{fill:#244289;}.cls-6{fill:#ea4e3c;}.cls-7{fill:#fcb4a9;}.cls-8{fill:#ff9016;}.cls-9{fill:#005c83;}.cls-10{fill:#7adbd5;}.cls-11{fill:none;stroke:#0a0202;stroke-miterlimit:10;stroke-width:0.25px;}.cls-12{fill:#00aebc;}.cls-13{fill:#a02f58;}.cls-14{fill:#ff8d6a;}.cls-15{fill:#72a94e;}.cls-16{fill:#00833c;}.cls-17{fill:#69be6e;}.cls-18{fill:#e63c2e;}</style></defs><title>Fablab-Logo</title><g id="Layer_2" data-name="Layer 2"><rect class="cls-1" x="864.72" y="361.04" width="94.49" height="35.28"/><polygon class="cls-2" points="864.72 361.04 864.72 396.31 826.85 361.04 864.72 361.04"/><rect class="cls-3" x="316.98" y="227.22" width="37.87" height="51.84"/><rect class="cls-3" x="316.98" y="313.07" width="37.87" height="83.25"/><rect class="cls-4" x="316.98" y="279.06" width="37.87" height="34"/><polygon class="cls-4" points="449.34 279.06 435.21 313.07 354.85 313.07 354.85 279.06 449.34 279.06"/><rect class="cls-3" x="354.85" y="191.95" width="94.49" height="35.28"/><rect class="cls-5" x="826.85" y="191.95" width="37.87" height="169.09"/><polygon class="cls-6" points="570.77 360.95 491.32 360.95 502.95 326.37 559.15 326.37 570.77 360.95"/><polygon class="cls-7" points="502.95 326.37 491.32 360.95 452.45 360.95 464.97 326.37 502.95 326.37"/><polygon class="cls-8" points="531.05 242.78 531.05 242.8 502.95 326.37 464.97 326.37 513.57 191.95 513.95 191.95 531.05 242.78"/><polygon class="cls-7" points="622.43 396.34 582.66 396.34 570.77 360.95 559.15 326.37 531.05 242.8 531.05 242.78 548.13 191.95 548.53 191.95 597.13 326.37 609.65 360.95 622.43 396.34"/><polygon class="cls-6" points="548.13 191.95 531.05 242.78 513.95 191.95 548.13 191.95"/><polygon class="cls-9" points="1106.84 360.95 1027.39 360.95 1039.02 326.37 1095.22 326.37 1106.84 360.95"/><polygon class="cls-10" points="1067.12 242.78 1039.02 326.37 1027.39 360.95 1015.5 396.34 975.73 396.34 988.52 360.95 1001.03 326.37 1049.63 191.95 1050.02 191.95 1067.12 242.78"/><polygon class="cls-11" points="1084.19 191.95 1067.12 242.78 1050.02 191.95 1084.19 191.95"/><polygon class="cls-10" points="1145.72 360.95 1106.84 360.95 1095.22 326.37 1133.2 326.37 1145.72 360.95"/><polygon class="cls-12" points="1133.2 326.37 1095.22 326.37 1067.12 242.78 1084.19 191.95 1084.6 191.95 1133.2 326.37"/><polygon class="cls-9" points="1084.19 191.95 1067.12 242.78 1050.02 191.95 1084.19 191.95"/><polygon class="cls-4" points="354.85 191.95 354.85 227.22 316.98 227.22 354.85 191.95"/><path class="cls-13" d="M791.46,336.07a60,60,0,0,1-60.05,60H684.47v-36h47.82a24.07,24.07,0,0,0,0-48.13h-.88a59.87,59.87,0,0,0,42.48-17.57l.4-.4A59.74,59.74,0,0,1,791.46,336.07Z"/><path class="cls-14" d="M774.29,294l-.4.4A59.87,59.87,0,0,1,731.41,312H684.47V276h46.94A59.81,59.81,0,0,1,774.29,294Z"/><path class="cls-6" d="M791.46,252A59.89,59.89,0,0,1,774.29,294a59.81,59.81,0,0,0-42.88-18h.88a24.06,24.06,0,0,0,0-48.11H684.47v-.6L646.64,192l0,0h84.81A60,60,0,0,1,791.46,252Z"/><rect class="cls-6" x="646.6" y="276" width="37.87" height="120.11"/><path class="cls-15" d="M1323,252a60,60,0,0,0-60-60h-47v36h47.82a24.07,24.07,0,0,1,0,48.13H1263a59.89,59.89,0,0,1,42.47,17.57l.4.41A59.76,59.76,0,0,0,1323,252Z"/><path class="cls-16" d="M1305.84,294l-.4-.41A59.89,59.89,0,0,0,1263,276h-47v36h47A59.77,59.77,0,0,0,1305.84,294Z"/><path class="cls-17" d="M1323,336.07A59.87,59.87,0,0,0,1305.84,294,59.77,59.77,0,0,1,1263,312h.87a24,24,0,1,1,0,48.1H1216v.61l-37.82,35.34,0,0H1263A60,60,0,0,0,1323,336.07Z"/><rect class="cls-17" x="1178.15" y="191.9" width="37.87" height="120.11"/><path class="cls-15" d="M1019.13,474.63V609.75q0,34.77-20,53.45t-57.3,18.68q-36,0-55.1-16.67c13.26-21.73,16-45.25,16.41-57.43q.46,20.76,9.14,30.31,9.15,10.13,29.55,10.13,21.63,0,30.88-9.79t9.23-33.2V474.63Z"/><path class="cls-16" d="M903.09,607.71v.07c-.43,12.18-3.15,35.7-16.41,57.43-1-.85-1.95-1.75-2.86-2.68q-19.11-19.39-19.09-58.93v-129H903v130.6C903,606.08,903,606.91,903.09,607.71Z"/><rect class="cls-13" x="402.31" y="476.09" width="37.87" height="169.09"/><rect class="cls-18" x="440.18" y="645.18" width="94.49" height="35.25"/><polygon class="cls-14" points="440.18 645.18 440.18 680.43 402.31 645.18 440.18 645.18"/><polygon class="cls-1" points="791.08 645.04 672.8 645.04 685.3 610.48 779.48 610.48 791.08 645.04"/><polygon class="cls-2" points="672.8 645.04 711.66 645.04 699.76 680.45 660 680.45 672.8 645.04"/><polygon class="cls-5" points="751.38 526.9 723.28 610.48 685.3 610.48 733.9 476.06 734.28 476.06 751.38 526.9"/><polygon class="cls-5" points="842.77 680.45 803 680.45 791.08 645.04 779.48 610.48 751.38 526.9 768.46 476.06 768.86 476.06 817.46 610.48 829.96 645.04 842.77 680.45"/><polygon class="cls-2" points="768.46 476.06 751.38 526.9 734.28 476.06 768.46 476.06"/><polygon class="cls-1" points="354.85 476.09 354.85 680.43 316.98 680.43 316.98 511.34 354.85 476.09"/><polygon class="cls-2" points="354.85 476.09 316.98 511.34 316.98 476.09 354.85 476.09"/><polygon class="cls-7" points="620.55 476.09 620.55 680.43 582.66 680.43 582.66 511.34 620.55 476.09"/><polygon class="cls-4" points="620.55 476.09 582.66 511.34 582.66 476.09 620.55 476.09"/><polygon class="cls-9" points="1323.02 476.09 1323.02 680.43 1285.13 680.43 1285.13 511.34 1323.02 476.09"/><polygon class="cls-12" points="1323.02 476.09 1285.13 511.34 1285.13 476.09 1323.02 476.09"/><polygon class="cls-3" points="1105.34 539.44 1105.34 680.43 1067.45 680.43 1067.45 476.09 1080.99 498.73 1105.34 539.44"/><polygon class="cls-3" points="1227.55 476.09 1227.55 680.43 1214.01 657.79 1189.68 617.12 1189.68 476.09 1227.55 476.09"/><polygon class="cls-4" points="1227.55 680.43 1189.68 680.43 1105.34 539.44 1080.99 498.73 1067.45 476.09 1105.34 476.09 1189.68 617.12 1214.01 657.79 1227.55 680.43"/></g></svg>