<svg id="Layer_1" data-name="Layer 1" xmlns="http://www.w3.org/2000/svg" xmlns:xlink="http://www.w3.org/1999/xlink" viewBox="0 0 87.84 89.28"><defs><style>.cls-1{fill:none;}.cls-2{fill:#ffda22;}.cls-3{opacity:0.35;}.cls-4{clip-path:url(#clip-path);}.cls-5{fill:#371a45;}.cls-6{clip-path:url(#clip-path-2);}.cls-7{clip-path:url(#clip-path-3);}.cls-8{clip-path:url(#clip-path-4);}.cls-9{clip-path:url(#clip-path-5);}.cls-10{clip-path:url(#clip-path-6);}.cls-11{opacity:0.5;}.cls-12{clip-path:url(#clip-path-7);}.cls-13{fill:#fff;}.cls-14{clip-path:url(#clip-path-8);}.cls-15{fill:#95ebf9;}.cls-16{opacity:0.7;}.cls-17{clip-path:url(#clip-path-9);}.cls-18{fill:#54c6d1;}.cls-19{fill:#4bc5d1;}.cls-20{clip-path:url(#clip-path-10);}.cls-21{clip-path:url(#clip-path-11);}.cls-22{clip-path:url(#clip-path-12);}.cls-23{clip-path:url(#clip-path-13);}.cls-24{clip-path:url(#clip-path-14);}.cls-25{fill:#1a8bfc;}.cls-26{opacity:0.4;}.cls-27{clip-path:url(#clip-path-15);}.cls-28{opacity:0.3;}.cls-29{clip-path:url(#clip-path-16);}.cls-30{clip-path:url(#clip-path-17);}.cls-31{clip-path:url(#clip-path-18);}.cls-32{clip-path:url(#clip-path-19);}.cls-33{clip-path:url(#clip-path-20);}.cls-34{clip-path:url(#clip-path-21);}.cls-35{fill:#22a7f0;}.cls-36{clip-path:url(#clip-path-22);}.cls-37{clip-path:url(#clip-path-23);}.cls-38{clip-path:url(#clip-path-24);}.cls-39{clip-path:url(#clip-path-25);}.cls-40{clip-path:url(#clip-path-26);}.cls-41{clip-path:url(#clip-path-27);}.cls-42{clip-path:url(#clip-path-28);}.cls-43{clip-path:url(#clip-path-29);}.cls-44{fill:#293856;}.cls-45{fill:#21102b;}.cls-46{clip-path:url(#clip-path-30);}.cls-47{clip-path:url(#clip-path-31);}.cls-48{clip-path:url(#clip-path-32);}.cls-49{clip-path:url(#clip-path-33);}.cls-50{clip-path:url(#clip-path-34);}</style><clipPath id="clip-path"><rect class="cls-1" x="12.3" y="23.99" width="64.31" height="60.08"/></clipPath><clipPath id="clip-path-2"><rect class="cls-1" x="61.65" y="64.89" width="8.1" height="7.21"/></clipPath><clipPath id="clip-path-3"><rect class="cls-1" x="39.57" y="59.95" width="9.54" height="6.37"/></clipPath><clipPath id="clip-path-4"><rect class="cls-1" x="41.7" y="72.82" width="6.4" height="6.01"/></clipPath><clipPath id="clip-path-5"><rect class="cls-1" x="19.82" y="57.46" width="11.74" height="12.97"/></clipPath><clipPath id="clip-path-6"><rect class="cls-1" x="29.82" y="47.04" width="31.73" height="19.99"/></clipPath><clipPath id="clip-path-7"><rect class="cls-1" x="19.03" y="23.99" width="63.6" height="54.03"/></clipPath><clipPath id="clip-path-8"><rect class="cls-1" x="16.63" y="36.16" width="5.26" height="8.67"/></clipPath><clipPath id="clip-path-9"><rect class="cls-1" x="31.58" y="54.16" width="3.68" height="3.47"/></clipPath><clipPath id="clip-path-10"><rect class="cls-1" x="47.05" y="61.79" width="3.91" height="3.03"/></clipPath><clipPath id="clip-path-11"><rect class="cls-1" x="30.29" y="24.15" width="4.65" height="3.7"/></clipPath><clipPath id="clip-path-12"><rect class="cls-1" x="32.51" y="28.59" width="15.65" height="4.28"/></clipPath><clipPath id="clip-path-13"><rect class="cls-1" x="54.72" y="30.45" width="11.53" height="15.74"/></clipPath><clipPath id="clip-path-14"><rect class="cls-1" x="60.47" y="39.31" width="4.08" height="4.76"/></clipPath><clipPath id="clip-path-15"><rect class="cls-1" x="25.34" y="45" width="33.99" height="16.14"/></clipPath><clipPath id="clip-path-16"><rect class="cls-1" x="36.2" y="46.66" width="22.81" height="13.67"/></clipPath><clipPath id="clip-path-17"><rect class="cls-1" x="31.84" y="43.1" width="15.31" height="9.47"/></clipPath><clipPath id="clip-path-18"><rect class="cls-1" x="41.87" y="34.71" width="17.61" height="24.68"/></clipPath><clipPath id="clip-path-19"><rect class="cls-1" x="40.82" y="35.74" width="2.75" height="2.27"/></clipPath><clipPath id="clip-path-20"><rect class="cls-1" x="41.54" y="36.51" width="11.27" height="6.41"/></clipPath><clipPath id="clip-path-21"><rect class="cls-1" x="42.29" y="39.61" width="9.87" height="3.31"/></clipPath><clipPath id="clip-path-22"><rect class="cls-1" x="47.35" y="37.37" width="2.27" height="2.73"/></clipPath><clipPath id="clip-path-23"><rect class="cls-1" x="46.75" y="37.96" width="2.1" height="1.86"/></clipPath><clipPath id="clip-path-24"><rect class="cls-1" x="46.77" y="37.32" width="2.09" height="1.74"/></clipPath><clipPath id="clip-path-25"><rect class="cls-1" x="50.61" y="39.36" width="9.31" height="3.56"/></clipPath><clipPath id="clip-path-26"><rect class="cls-1" x="52.4" y="43.04" width="0.08" height="0.08"/></clipPath><clipPath id="clip-path-27"><rect class="cls-1" x="57.03" y="34.44" width="12.84" height="7.32"/></clipPath><clipPath id="clip-path-28"><rect class="cls-1" x="62" y="38.9" width="9.22" height="3.4"/></clipPath><clipPath id="clip-path-29"><rect class="cls-1" x="38.11" y="17.65" width="23.75" height="14.71"/></clipPath><clipPath id="clip-path-30"><rect class="cls-1" x="56.74" y="21.48" width="6.28" height="6.95"/></clipPath><clipPath id="clip-path-31"><rect class="cls-1" x="53.18" y="19.3" width="3.05" height="3.37"/></clipPath><clipPath id="clip-path-32"><rect class="cls-1" x="53.12" y="23.81" width="1.26" height="1.35"/></clipPath><clipPath id="clip-path-33"><rect class="cls-1" x="40.02" y="12.66" width="11.21" height="7.76"/></clipPath><clipPath id="clip-path-34"><rect class="cls-1" x="58.16" y="23.74" width="5.06" height="4.34"/></clipPath></defs><title>FABLAB ფლაერის სამუშაო ვერსია ბოლო ვერსია bolo</title><path class="cls-2" d="M82.57,56.66a38.24,38.24,0,0,1-3.18,8.58A37.19,37.19,0,0,1,68.77,78a35.09,35.09,0,0,1-13.22,6.2C36.19,88.68,17,76,12.63,55.75a38.67,38.67,0,0,1,6.47-30.9A2,2,0,0,1,22.8,26c0,.67.1,1.35.18,2a37.05,37.05,0,0,0,.63,3.89,38.73,38.73,0,0,0,2.55,7.8c.2.43.4.86.61,1.29.52,1,1.08,2,1.68,3,.44.71.89,1.39,1.37,2.06.23.33.47.65.71,1,.6.8,1.23,1.56,1.89,2.29.36.41.73.8,1.11,1.18s.53.54.8.8A35,35,0,0,0,37.48,54a3.55,3.55,0,0,0,.31.23c.61.46,1.23.9,1.87,1.31l.45.29q1,.6,2,1.14.52.3,1.08.57l.23.11.16.08.35.17c.63.3,1.27.57,1.91.83l.58.23.63.23c.56.2,1.12.39,1.68.56.88.27,1.77.5,2.67.7s1.86.36,2.8.48a31.74,31.74,0,0,0,3.79.29,33.64,33.64,0,0,0,3.61-.11l.74-.07c.53-.06,1.07-.13,1.6-.21q1.32-.21,2.64-.51l.18,0a35.82,35.82,0,0,0,7.16-2.56,35.39,35.39,0,0,0,5.52-3.34,2.08,2.08,0,0,1,3.18,2.28"/><g class="cls-3"><g class="cls-4"><path class="cls-5" d="M16.78,28.45a38.77,38.77,0,0,0-3.6,26.3C17.52,75,36.73,87.68,56.1,83.15A35.17,35.17,0,0,0,69.32,77a37.21,37.21,0,0,0,7.3-7.37,37.09,37.09,0,0,1-3.37,2.88A35.29,35.29,0,0,1,60,78.67a34.8,34.8,0,0,1-31.38-8.25,3.54,3.54,0,0,0,1.24-.73l-.2.17-.49-.43a3.77,3.77,0,0,0,1.46-1,3.26,3.26,0,0,0,.29-.36h0c.86-2.22.11-5.41-2-7.84-2.64-3-6.38-3.73-8.36-1.64a4.66,4.66,0,0,0-.39.49A39.06,39.06,0,0,1,20.7,24a2,2,0,0,0-1.6.86,38.1,38.1,0,0,0-4.21,7.41,37.49,37.49,0,0,1,1.89-3.81"/></g></g><g class="cls-3"><g class="cls-6"><path class="cls-5" d="M65.76,64.89a3.88,3.88,0,0,0-4.11,3.56,3.81,3.81,0,0,0,4,3.65,3.87,3.87,0,0,0,4.12-3.55,3.82,3.82,0,0,0-4-3.66"/></g></g><g class="cls-3"><g class="cls-7"><path class="cls-5" d="M44.76,66.31c2.62.12,4.56-1.21,4.33-3S46.54,60.07,43.92,60s-4.57,1.22-4.33,3,2.54,3.28,5.17,3.39"/></g></g><path class="cls-2" d="M44.72,66.17c2.28.18,3.91-.59,3.64-1.72s-2.32-2.18-4.6-2.36-3.91.59-3.64,1.72,2.32,2.18,4.6,2.36"/><path class="cls-2" d="M65.59,67.38a2.59,2.59,0,1,0,3.78,1.26,2.83,2.83,0,0,0-3.78-1.26"/><path class="cls-2" d="M24.25,55.33a5.16,5.16,0,0,0-3.52.67c-1.89,1.16-2.66,3.42-2.47,6.07a12.13,12.13,0,0,0,1.79,5.35c2.7,4.43,7.42,6.46,10.55,4.53a5.36,5.36,0,0,0,2.32-3.28,10.74,10.74,0,0,0-1.64-8.14Z"/><path class="cls-5" d="M20.73,56a5,5,0,0,0-1.24,1.31A5.47,5.47,0,0,0,18.77,59a7.64,7.64,0,0,0-.23,1.79,10.81,10.81,0,0,0,.11,1.8c.05.3.11.59.18.88s.15.59.24.87A11.41,11.41,0,0,0,19.74,66a13.12,13.12,0,0,0,2,3A11.26,11.26,0,0,0,23,70.16a10,10,0,0,0,1.41,1,8.55,8.55,0,0,0,1.56.74l.41.14.41.1.42.08a3,3,0,0,0,.42.06,5.27,5.27,0,0,0,1.68-.1,4.66,4.66,0,0,0,1.57-.68,5.07,5.07,0,0,0,1.26-1.23,6.59,6.59,0,0,0,.83-1.63,6,6,0,0,1-.63,1.77,5.12,5.12,0,0,1-1.21,1.45,5.21,5.21,0,0,1-1.67.9,5.65,5.65,0,0,1-1.87.23,6.55,6.55,0,0,1-1.86-.33A9.34,9.34,0,0,1,24,71.94a11.37,11.37,0,0,1-2.91-2.4A13.46,13.46,0,0,1,19,66.34a11.88,11.88,0,0,1-1-3.71,8.83,8.83,0,0,1,.39-3.82,5.76,5.76,0,0,1,.93-1.66A4.51,4.51,0,0,1,20.73,56"/><path class="cls-5" d="M65.62,72.39A4.43,4.43,0,0,1,62,70.86a4.12,4.12,0,0,1-.69-1.25,3.74,3.74,0,0,1,.22-2.84,4.21,4.21,0,0,1,.87-1.13,4.53,4.53,0,0,1,1.15-.79,5.51,5.51,0,0,1,1.31-.4,5.09,5.09,0,0,1,1.35,0,5.45,5.45,0,0,1,1.32.34,4.3,4.3,0,0,1,1.17.72,3.8,3.8,0,0,1,1.36,2.4,3.3,3.3,0,0,1-.08,1.4,3.23,3.23,0,0,1-.25.65,4.21,4.21,0,0,1-.36.57.1.1,0,0,1-.14,0,.11.11,0,0,1,0-.13v0a4.3,4.3,0,0,0,.28-.57,3.25,3.25,0,0,0,.17-.61,3.36,3.36,0,0,0,.06-.63,4.38,4.38,0,0,0-.08-.62,3.39,3.39,0,0,0-1.28-2,4.41,4.41,0,0,0-4.53-.44,3.78,3.78,0,0,0-1.71,1.6,3.16,3.16,0,0,0-.24,2.32,3.56,3.56,0,0,0,1.42,1.91,4.58,4.58,0,0,0,2.3.8h0a.14.14,0,0,1,.12.14.13.13,0,0,1-.12.12"/><path class="cls-5" d="M71,66.27a4.85,4.85,0,0,1,.82,2.54,5.09,5.09,0,0,1-.67,2.64,5.64,5.64,0,0,1-1.84,2,6.58,6.58,0,0,1-2.44,1,7.1,7.1,0,0,1-2.6,0,6.3,6.3,0,0,1-2.41-1,5.72,5.72,0,0,1-1.77-2,4.9,4.9,0,0,1-.56-2.6.1.1,0,0,1,.11-.1.11.11,0,0,1,.09.1h0a5,5,0,0,0,.72,2.38,5.58,5.58,0,0,0,1.71,1.71,6.41,6.41,0,0,0,4.6.84,6.17,6.17,0,0,0,2.2-.88,6,6,0,0,0,.93-.74c.08-.07.14-.15.21-.22l.19-.23.18-.25.09-.12.08-.13.15-.26c0-.09.09-.18.13-.27a4,4,0,0,0,.22-.57c0-.1,0-.2.08-.3l.06-.3c0-.2,0-.4.06-.61a4.82,4.82,0,0,0-.56-2.4.14.14,0,0,1,0-.18.12.12,0,0,1,.17,0"/><g class="cls-3"><g class="cls-8"><path class="cls-5" d="M41.74,76.34a3.09,3.09,0,0,0,2.37,2.37A3.14,3.14,0,0,0,48,76.84a2.3,2.3,0,0,0,.1-.63,3.24,3.24,0,0,0-3.38-3.39c-1.78,0-3.28,1.13-3,3.52"/></g></g><path class="cls-5" d="M45.67,72.8a3.64,3.64,0,0,1,1.82,1,3.89,3.89,0,0,1,.63.91,3.38,3.38,0,0,1,.3,1.1A2.81,2.81,0,0,1,48.3,77a2.88,2.88,0,0,1-.55,1,3.23,3.23,0,0,1-1.91,1.1A3.85,3.85,0,0,1,42,77.47a3,3,0,0,1-.23-3.2,2.62,2.62,0,0,1,.7-.81.09.09,0,0,1,.14,0,.11.11,0,0,1,0,.14,2.58,2.58,0,0,0-.73,1.74,2.89,2.89,0,0,0,.58,1.77,3.38,3.38,0,0,0,3.24,1.29,2.62,2.62,0,0,0,1.53-.86,2.43,2.43,0,0,0,.57-1.67,3,3,0,0,0-.68-1.72,3.82,3.82,0,0,0-1.54-1.11h0a.13.13,0,0,1-.07-.17.13.13,0,0,1,.14-.09"/><g class="cls-3"><g class="cls-9"><path class="cls-5" d="M29.23,60.2C26.64,57.28,23,56.58,21,58.64s-1.45,6.11,1.14,9,6.26,3.62,8.22,1.56,1.44-6.11-1.14-9"/></g></g><path class="cls-2" d="M27.48,62.32C25.06,60,22,59.43,20.71,61.13s-.43,5,2,7.33,5.44,2.89,6.76,1.19.44-5-2-7.33"/><path class="cls-5" d="M26.77,70.38a4.14,4.14,0,0,0,1.82-.23,3.39,3.39,0,0,0,1.46-1,4.12,4.12,0,0,0,.81-1.65A5.91,5.91,0,0,0,31,65.58,8.62,8.62,0,0,0,29.91,62a9.37,9.37,0,0,0-2.42-2.88,6,6,0,0,0-3.32-1.35,3.39,3.39,0,0,0-3,1.45,4.62,4.62,0,0,0-.7,1.71,6.78,6.78,0,0,0-.1,1.91,9.74,9.74,0,0,0,1.17,3.73h0a.12.12,0,0,1-.05.18.12.12,0,0,1-.17,0,9.21,9.21,0,0,1-1.49-3.8,7,7,0,0,1,0-2.1,5.09,5.09,0,0,1,.74-2,4,4,0,0,1,1.59-1.44,4.13,4.13,0,0,1,2.06-.44,5.61,5.61,0,0,1,2,.45,6.08,6.08,0,0,1,.92.46,7.19,7.19,0,0,1,.86.58,10,10,0,0,1,2.65,3.16,11,11,0,0,1,.79,1.94,8.68,8.68,0,0,1,.33,2.09,6.63,6.63,0,0,1-.25,2.12,4.81,4.81,0,0,1-1,1.88,4,4,0,0,1-1.76,1.1,5.05,5.05,0,0,1-1,.16,4.71,4.71,0,0,1-1-.09.17.17,0,0,1-.14-.19.16.16,0,0,1,.18-.14Z"/><g class="cls-3"><g class="cls-10"><path class="cls-5" d="M61.55,61.11l0,.12a3.18,3.18,0,0,1-.12.73c-.76,2.56-3.77,3.52-6.05,2.94-1.07-.28-2.13-.59-3.18-.92a1.11,1.11,0,0,1-.1.29l-.87,1.83a1.84,1.84,0,0,1-2.58.68,2,2,0,0,1-1-2.56l.75-1.57a66.12,66.12,0,0,1-11.58-5.76,1.16,1.16,0,0,1-.21.45l-1.25,1.59a1.83,1.83,0,0,1-2.65.06,2,2,0,0,1-.47-2.73l1.25-1.59c-.66-.46-1.31-.94-1.95-1.43a4.13,4.13,0,0,1-1.39-4.66A3.76,3.76,0,0,1,30.53,47c.6.8,1.23,1.56,1.89,2.29.36.41.73.8,1.11,1.18s.53.54.8.8A35,35,0,0,0,37.48,54l.3.23c.62.46,1.24.9,1.88,1.31l.45.29q1,.6,2,1.14c.35.2.72.39,1.08.57l.23.11.16.08.36.17c.62.3,1.26.57,1.9.83l.58.23.63.23c.55.2,1.12.39,1.68.56.88.27,1.77.5,2.67.7s1.86.36,2.8.48a31.74,31.74,0,0,0,3.79.29,33.64,33.64,0,0,0,3.61-.11"/></g></g><path class="cls-5" d="M40.55,60.93a2.16,2.16,0,0,0-.72,1.46v.2l0,.2s0,.06,0,.1l0,.09a1.52,1.52,0,0,0,.06.2c.06.12.1.25.17.37s.07.12.11.17l.12.17A4.23,4.23,0,0,0,41.59,65a6.81,6.81,0,0,0,1.53.7l.41.11.41.1.42.06.42.05a6.67,6.67,0,0,0,1.67-.08A4.09,4.09,0,0,0,48,65.32a2.71,2.71,0,0,0,.61-.56l.12-.18a1.11,1.11,0,0,0,.09-.19A1.74,1.74,0,0,0,49,64v0a.11.11,0,0,1,.14-.06.1.1,0,0,1,.06.11,2.25,2.25,0,0,1-.29.93,2.77,2.77,0,0,1-.63.73,4.19,4.19,0,0,1-1.68.82,6.29,6.29,0,0,1-1.83.18,7.46,7.46,0,0,1-1.81-.31,6.81,6.81,0,0,1-1.69-.78,6.94,6.94,0,0,1-.75-.59l-.33-.35L40,64.46a1.43,1.43,0,0,1-.14-.2l-.13-.21a2.39,2.39,0,0,1-.12-.22,2.68,2.68,0,0,1-.18-.47,1.09,1.09,0,0,1,0-.26l0-.12s0-.09,0-.13v-.26l0-.26a2.12,2.12,0,0,1,.36-.94,2.55,2.55,0,0,1,.68-.67.12.12,0,0,1,.17,0,.12.12,0,0,1,0,.17"/><path class="cls-5" d="M43.28,67.74a5.72,5.72,0,0,0,2.16.28,6.43,6.43,0,0,0,1.07-.16,6.18,6.18,0,0,0,1-.33,5.72,5.72,0,0,0,1.83-1.17,3.17,3.17,0,0,0,1-1.91h0a.1.1,0,0,1,.12-.09.11.11,0,0,1,.09.09,2.67,2.67,0,0,1-.16,1.25,3.47,3.47,0,0,1-.64,1.08,5.29,5.29,0,0,1-2,1.42,6.66,6.66,0,0,1-1.15.36,6.08,6.08,0,0,1-1.2.1A4.39,4.39,0,0,1,43.17,68a.13.13,0,0,1,0-.18.14.14,0,0,1,.15-.06Z"/><g class="cls-11"><g class="cls-12"><path class="cls-13" d="M82.42,55.17a2,2,0,0,0-3.13-1A35,35,0,0,1,66.44,60.1a34.42,34.42,0,0,1-23-2.59L44,58l-.1-.05-.36-.17-.16-.08-.23-.11-.82-.43L42.06,57c-.62-.33-1.23-.69-1.83-1.07l-.12-.07-.45-.29c-.64-.41-1.26-.85-1.88-1.31l-.3-.23c-.55-.41-1.09-.85-1.61-1.3L35.09,52l-.76-.71c-.1-.1-.21-.2-.31-.31l-.29-.28-.2-.21c-.38-.38-.75-.77-1.11-1.18l-.37-.41c-.52-.61-1-1.23-1.52-1.88l-.27-.35c-.15-.2-.3-.4-.44-.61a1.13,1.13,0,0,0-.1-.13c-.23-.33-.46-.67-.68-1s-.4-.61-.59-.92c-.6-1-1.16-2-1.68-3l-.39-.83c-.08-.15-.15-.31-.22-.46a38.73,38.73,0,0,1-2.55-7.8c-.11-.48-.2-1-.28-1.46Q23.12,29.24,23,28l0-.39c-.06-.54-.1-1.09-.14-1.63a2.12,2.12,0,0,0-.18-.77A2,2,0,0,0,20.4,24l-.21.05a1.25,1.25,0,0,0-.25.09.61.61,0,0,0-.14.07l-.16.09a2.26,2.26,0,0,0-.54.53l-.07.09a2.07,2.07,0,0,1,2.68,1.92c0,.67.1,1.34.17,2,.15,1.29.36,2.59.64,3.89a38.64,38.64,0,0,0,2.55,7.79c.2.44.4.87.61,1.29q.78,1.56,1.68,3c.43.7.89,1.39,1.37,2.06l.7,1c.61.79,1.24,1.55,1.9,2.29.36.4.73.79,1.1,1.18s.53.53.81.79a35.06,35.06,0,0,0,3.15,2.7l.3.23c.62.46,1.24.89,1.88,1.31l.45.28c.63.41,1.29.79,1.95,1.15.35.19.71.38,1.08.56l.23.12.16.08.35.17c.63.29,1.26.57,1.91.83l.58.23.63.23c.55.2,1.12.38,1.68.55s1.37.4,2.07.56c13.61,5.35,28.32-4,30.24-3.61,1.2.23.94,2.14.39,4a39.6,39.6,0,0,1-2,4.58A37.24,37.24,0,0,1,68.68,78l.09-.06h0l.26-.21c.31-.23.6-.47.9-.71s.74-.62,1.1-1a32.57,32.57,0,0,0,2.38-2.32q.72-.77,1.38-1.56c.45-.54.88-1.08,1.29-1.64.21-.28.41-.56.61-.85a36.22,36.22,0,0,0,2.7-4.48q.27-.49.51-1l.24-.51a38,38,0,0,0,2.43-7,2.2,2.2,0,0,0-.15-1.49"/></g></g><path class="cls-5" d="M47.75,85.51A35.39,35.39,0,0,1,27.43,79a37.89,37.89,0,0,1-14.68-21c-.11-.38-.2-.73-.28-1l-.25-1.07c-.06-.28-.11-.56-.17-.84l-.15-.84c-.05-.27-.09-.54-.13-.81s0-.29-.07-.44,0-.22,0-.32v-.09l-.06-.43c0-.14,0-.28,0-.42s0-.27-.05-.41l0-.42c0-.14,0-.28,0-.42v-.06l0-.35a.76.76,0,0,0,0-.15V49.6c0-.13,0-.27,0-.41,0-.66,0-1.34,0-2v-.31c0-.17,0-.34,0-.52h0a2.17,2.17,0,0,1,0-.26c0-.59.05-1.18.1-1.77,0-.08,0-.16,0-.25V44a.66.66,0,0,1,0-.14c0-.13,0-.26,0-.4.05-.52.12-1.06.2-1.6l.06-.4c.16-1,.37-2.11.62-3.15.06-.25.12-.5.19-.74.14-.54.29-1.06.44-1.55,0-.1.06-.21.1-.32.16-.52.34-1.05.53-1.58l.25-.67c.12-.31.25-.64.38-1,.07-.16.14-.32.2-.48.46-1.05,1-2.09,1.5-3.1.19-.34.38-.69.58-1l.34-.57c.12-.21.25-.41.38-.62s.45-.71.71-1.09l.49-.71c.09-.11.17-.23.26-.35l.17-.21,0,0,.07-.08.05,0a.08.08,0,0,1,0,0l0,0,.07-.06,0,0,.05,0h0a2.39,2.39,0,0,1,1.34-.47h.11a1.63,1.63,0,0,1,.31,0,2.53,2.53,0,0,1,2.14,2.25,1.1,1.1,0,0,1,0,.18c0,.19,0,.38,0,.57l0,.35c0,.2,0,.4.05.6s0,.25,0,.38c.08.71.18,1.42.29,2.12l.06.36c0,.13.05.25.07.37.06.33.12.63.18.91l-.42.12.43-.11v0l0,.12c0,.1,0,.21.07.31l0,.09c0,.13.05.25.08.37l.06.24.09.35a.19.19,0,0,0,0,.08v0l.12.46.15.52c.06.23.13.45.2.68a3.58,3.58,0,0,0,.11.35l0,.16,0,.08a36.83,36.83,0,0,0,8.1,13.88A34.38,34.38,0,0,0,61.74,60.63l.23,0h.12l.18,0,.39,0,.24,0,.65-.09.82-.13.49-.09.52-.1h0l.51-.11.49-.11c.87-.2,1.75-.44,2.61-.71l.42-.14.43-.14.41-.15A35.06,35.06,0,0,0,77.69,55l.11-.08.25-.16.29-.2.45-.32.35-.25a2.46,2.46,0,0,1,1-.44l.17,0a1.2,1.2,0,0,1,.33,0h.11a2,2,0,0,1,.53.1,2.42,2.42,0,0,1,1,.53A2.68,2.68,0,0,1,83,55.39,2.59,2.59,0,0,1,83,56.53a.5.5,0,0,1,0,.12l0,.13c-.07.31-.16.64-.25,1,0,.17-.1.34-.14.51-.14.49-.3,1-.46,1.5s-.23.69-.34,1A38.2,38.2,0,0,1,80,65l-.21.42v0l-.24.44-.22.43c-.2.36-.38.68-.55,1-.35.6-.72,1.19-1.1,1.77a.61.61,0,0,1-.07.1l-.11.17c0,.07-.09.13-.13.19l0,0-.06.09-.12.18-.09.13-.07.1-.14.19v0l-.09.12-.13.18-.11.15-.07.1-.05.06c-.08.12-.17.24-.26.35l0,0-.17.22,0,0-.11.13c-.09.13-.2.26-.31.39l-.34-.28.33.29a.08.08,0,0,1,0,0s0,0,0,0-.09.11-.13.16l-.14.17-.06.08,0,0,0,0-.2.22,0,.07-.23.26-.09.1,0,0-.19.21v0l-.08.09a1.17,1.17,0,0,0-.15.16l-.1.1a1.29,1.29,0,0,1-.16.17l-.07.09c-.1.1-.19.2-.29.29l0,.05-.08.08-.15.15-.07.08-.19.18-.21.21-.24.24-.11.1-.27.26a1.14,1.14,0,0,0-.11.11l0,0-.07.07,0,0-.11.09-.16.15,0,0s0,0,0,0l0,0-.31.28-.11.09-.25.22-.07.06-.05.05-.09.07-.26.22h0s0,0,0,0l-.07.06L70,77.6l-.11.08-.32.26-.19.14-.22.17h0l-.42.32-.07.05-.24.17-.09.07-.72.5c-.32.22-.62.42-.91.6l-.32.2,0,0-.17.1-.18.11-.26.15-.08,0-.34.2-.06,0-.28.16-.3.17-.21.11-.08,0-.09,0-.23.12-.43.23L63,82l-.39.18h0l-.15.07-.27.12h0l-.28.12-.14.07-.2.08-.07,0-.11,0-.11,0-.16.06,0,0-.09,0-.22.09h0l-.07,0h0l-.16.06-.12,0-.07,0-.06,0-.1,0-.18.07-.15.06-.1,0-.21.07-.15.06-.28.1-.31.1-.3.1L58,84l-.07,0-.21.07h0l-.44.13-.27.07-.27.07-.18,0-.13,0-.21.06-.11,0-.17.05h0l-.2,0-.17,0-.1,0-.16,0-.18,0h0l-.24,0-.32.07-.18,0h-.08L54,85h-.1l-.4.06h-.1l-.3,0-.26,0-.13,0-.3,0h-.11l-.4.06-.29,0h-.11a32.81,32.81,0,0,1-3.71.2M19.66,24.88h0s0,0,0,.05l0,0-.11.13-.24.35-.48.69c-.26.37-.48.72-.7,1.06l-.37.6-.33.57c-.19.33-.38.66-.56,1-.53,1-1,2-1.47,3h0l-.19.46c-.13.31-.26.62-.38.93l-.24.66c-.19.51-.36,1-.52,1.53,0,.11-.07.21-.1.32-.15.48-.29,1-.43,1.51l-.18.72c-.24,1-.45,2.05-.61,3.08l-.06.38c-.07.54-.14,1.06-.19,1.57,0,.13,0,.26,0,.39s0,.09,0,.14v.06a1.94,1.94,0,0,1,0,.24c0,.57-.08,1.15-.1,1.73,0,.08,0,.16,0,.24v0c0,.17,0,.34,0,.51v.29c0,.65,0,1.31,0,2,0,.14,0,.27,0,.4l0,.32V50c0,.12,0,.24,0,.35v.07c0,.13,0,.27,0,.4s0,.27,0,.41,0,.27,0,.41,0,.26,0,.4,0,.28,0,.42v.08c0,.1,0,.21.05.32l.06.43c0,.26.08.53.13.79l.15.82c.05.27.11.55.17.81s.16.72.24,1.05.16.65.27,1C18,73.82,32,84.61,47.65,84.61a33.4,33.4,0,0,0,3.72-.21h.11l.28,0,.39,0,.53-.08.25,0,.3,0,.1,0,.39-.07h.1l.26,0,.08,0,.17,0,.14,0h0l.26,0,.31-.07.16,0,.1,0,.16,0,.19,0h0l.19-.05h0l.05,0h0l.21,0,.11,0h0l.17,0,.26-.07L57,83.3l.25-.07.4-.12h.05l.44-.14.29-.09.3-.1.28-.1.14,0,.19-.07h0l0,0,.13,0h0l.16-.07h0l.08,0h0l0,0,.08,0,.1,0h0l.14-.06h0l.06,0h0l.22-.09.12,0,.16-.06.1,0,.11,0,.07,0,.18-.08.15-.07.26-.11.15-.07.12,0,.31-.15h0l.19-.11h0l.62-.31.41-.21.23-.12h0l.07,0h0l.05,0h0l.21-.11.3-.17.27-.15h0s0,0,0,0l.34-.21.08,0,.25-.15.17-.11h0l.17-.11,0,0,.32-.2.89-.58c.27-.19.5-.34.7-.49l.09-.07.24-.17,0,0,.37-.28.28-.2.17-.14.32-.26h0l.07-.06.22-.17.1-.09a3.23,3.23,0,0,0,.27-.23l.07,0,.13-.11.26-.22a.76.76,0,0,1,.09-.09l.31-.27.08-.07.15-.14.11-.1,0,0,.06-.06,0,0,.11-.09.27-.26h0l.08-.08h0l.24-.23.21-.2.19-.2,0-.06a1.06,1.06,0,0,0,.15-.15l.12-.12.28-.29.08-.09.15-.16.09-.1.15-.17.07-.07,0,0c.07-.07.12-.14.18-.21l0,0,.07-.08h0l.23-.27.06-.06.18-.21,0,0v0l0-.06,0-.06,0,0,.13-.15.12-.15.07-.09,0,0c.1-.11.2-.24.3-.37l.1-.13,0,0,.18-.22,0,0,.25-.34,0,0,0,0,0-.06.12-.17.12-.16v0a1,1,0,0,0,.08-.11h0l.13-.19h0l0-.07.1-.15.11-.16.09-.13.14-.2,0,0,.09-.14a.47.47,0,0,0,.06-.09c.37-.56.73-1.14,1.07-1.72.17-.28.34-.59.53-.94l.23-.42L79,65v0l.21-.41A39.13,39.13,0,0,0,81,60.46c.1-.29.21-.6.33-1s.31-1,.45-1.46c0-.17.09-.33.13-.5.1-.35.18-.68.26-1,0,0,0-.06,0-.08s0,0,0-.07a1.66,1.66,0,0,0-.05-.74,1.68,1.68,0,0,0-.5-.8A1.74,1.74,0,0,0,81,54.5a1.93,1.93,0,0,0-.41-.06h-.32a1.5,1.5,0,0,0-.63.29l-.35.26-.47.32-.29.2-.26.17-.11.08a35.34,35.34,0,0,1-7.6,3.81l-.43.15-.44.15-.43.14c-.88.28-1.78.53-2.68.73l-.49.11-.52.11h0l-.53.1-.49.09-.85.13c-.22,0-.44.07-.67.09l-.24,0-.4.05-.19,0h-.12l-.24,0a34.48,34.48,0,0,1-6.18,0A36,36,0,0,1,32.5,50.05a37.86,37.86,0,0,1-8.3-14.24l0-.07a.75.75,0,0,0-.05-.16c0-.12-.07-.24-.11-.36s-.14-.47-.2-.7L23.66,34l-.12-.47,0-.11-.09-.35-.06-.25-.09-.38v-.08c0-.12-.05-.22-.08-.33l0-.18c-.06-.28-.12-.59-.19-.92,0-.13,0-.26-.07-.39l-.06-.37c-.12-.71-.22-1.44-.3-2.17,0-.13,0-.26,0-.39L22.43,27c0-.12,0-.24,0-.36s0-.39,0-.58a.49.49,0,0,1,0-.12A1.67,1.67,0,0,0,21,24.46l-.2,0h-.07a1.5,1.5,0,0,0-.87.3ZM54.81,84.35h0v0Zm5.07-2Zm2.47-1Zm7.35-4.67h0ZM14.9,32.22h0Z"/><path class="cls-2" d="M22.9,43.44a10.66,10.66,0,0,0-.21-3.37c-.78-3.59-3.08-6.2-5.12-5.84s-3.06,3.57-2.28,7.16,3.08,6.2,5.12,5.84Z"/><path class="cls-5" d="M17.06,34.53A3.62,3.62,0,0,0,15.92,36a7,7,0,0,0-.48,1.88,11.77,11.77,0,0,0-.07,2c0,.33.05.66.1,1,0,.16,0,.32.08.47s.09.32.14.47a13.6,13.6,0,0,0,.71,1.81,10.11,10.11,0,0,0,1,1.65A5.86,5.86,0,0,0,18,46a4,4,0,0,0,.7.6,3.12,3.12,0,0,0,.81.42,2.46,2.46,0,0,0,.9.13h0a.11.11,0,0,1,0,.21,2.2,2.2,0,0,1-1,.05,3.17,3.17,0,0,1-1-.34,6.22,6.22,0,0,1-.85-.6,8.39,8.39,0,0,1-.71-.75,8.64,8.64,0,0,1-1.08-1.77,8,8,0,0,1-.38-1l-.15-.5c0-.16-.09-.33-.12-.5s-.07-.34-.1-.51a4.34,4.34,0,0,1-.08-.52c0-.34-.06-.69-.07-1a10.81,10.81,0,0,1,.13-2,7.18,7.18,0,0,1,.59-2,3.83,3.83,0,0,1,1.31-1.56.13.13,0,0,1,.18,0,.14.14,0,0,1,0,.18"/><g class="cls-3"><g class="cls-14"><path class="cls-5" d="M16.67,40.08a7.42,7.42,0,0,0,.94,3,3.36,3.36,0,0,0,2.09,1.77c1.43.22,2.39-1.53,2.14-3.91S20.36,36.6,19,36.22l-.19,0c-1.43-.23-2.39,1.52-2.14,3.9"/></g></g><path class="cls-2" d="M21.19,41.26c-.89-1.68-2.31-2.56-3.17-2s-.83,2.46.06,4.15,2.31,2.57,3.17,2,.84-2.46-.06-4.15"/><path class="cls-5" d="M21.67,42.47a7,7,0,0,0-.27-2.24,7.69,7.69,0,0,0-.37-1,7.38,7.38,0,0,0-.53-1,5,5,0,0,0-.69-.81,2.2,2.2,0,0,0-.84-.49,1.13,1.13,0,0,0-.85.06,1.66,1.66,0,0,0-.64.67,3.44,3.44,0,0,0-.34,1,5.6,5.6,0,0,0-.1,1.09,5.15,5.15,0,0,0,0,.55c0,.18,0,.37.07.55a7.73,7.73,0,0,0,.26,1.08,6.18,6.18,0,0,0,.42,1,5,5,0,0,0,.59.93,3,3,0,0,0,.79.71,1.65,1.65,0,0,0,1,.26h0a.1.1,0,0,1,.11.09.12.12,0,0,1-.08.12A1.83,1.83,0,0,1,19,44.88a3.61,3.61,0,0,1-1-.72,6.19,6.19,0,0,1-.71-1,6,6,0,0,1-.51-1.09l-.1-.28-.09-.29-.08-.29-.06-.3c0-.2-.06-.4-.09-.6s0-.41,0-.61a5.18,5.18,0,0,1,.09-1.24,4,4,0,0,1,.4-1.2,2.24,2.24,0,0,1,.94-.94,1.78,1.78,0,0,1,1.32-.1,2.76,2.76,0,0,1,1.08.66,5.07,5.07,0,0,1,.77,1A7.2,7.2,0,0,1,21.53,39a8,8,0,0,1,.33,1.16,6.63,6.63,0,0,1,.07,2.39.14.14,0,0,1-.15.11.15.15,0,0,1-.11-.14Z"/><path class="cls-15" d="M34.92,57.42a1.84,1.84,0,0,1-2.66.06,2,2,0,0,1-.46-2.73,1.83,1.83,0,0,1,2.65-.06,2,2,0,0,1,.47,2.73"/><g class="cls-16"><g class="cls-17"><path class="cls-13" d="M34.92,57.42a1.84,1.84,0,0,1-.19.2A2.11,2.11,0,0,0,34,55.27a1.87,1.87,0,0,0-2.46-.14,1.34,1.34,0,0,1,.22-.38,1.83,1.83,0,0,1,2.65-.06,2,2,0,0,1,.47,2.73"/></g></g><path class="cls-18" d="M35.24,56.66a1.65,1.65,0,0,1-.32.76,1.84,1.84,0,0,1-2.66.06,2,2,0,0,1-.46-2.73,1.15,1.15,0,0,1,.22-.22,2.19,2.19,0,0,0,.79,2,1.88,1.88,0,0,0,2.43.17"/><path class="cls-5" d="M33.84,56.72a.73.73,0,0,1-1,0,.81.81,0,0,1-.18-1.07.72.72,0,0,1,1,0,.8.8,0,0,1,.18,1.06"/><path class="cls-19" d="M36,54.31a1.11,1.11,0,0,1,.14,1.52l-1.24,1.59a2,2,0,0,0-.47-2.73,1.83,1.83,0,0,0-2.65.06L33,53.16A1,1,0,0,1,34.5,53Z"/><path class="cls-5" d="M33.64,58.37a2.42,2.42,0,0,1-1.59-.61,2.62,2.62,0,0,1-.91-1.57,2.08,2.08,0,0,1,.39-1.66A1.93,1.93,0,0,1,33,53.8a2.5,2.5,0,0,1,1.65.62,2.63,2.63,0,0,1,.9,1.56,2.08,2.08,0,0,1-.39,1.67,1.9,1.9,0,0,1-1.49.72h0m-.57-3.86h0a1.25,1.25,0,0,0-1,.47,1.36,1.36,0,0,0-.25,1.09,2,2,0,0,0,.67,1.14,1.8,1.8,0,0,0,1.2.45,1.22,1.22,0,0,0,1-.47,1.34,1.34,0,0,0,.25-1.08A1.92,1.92,0,0,0,34.23,55a1.76,1.76,0,0,0-1.16-.46"/><path class="cls-5" d="M35.18,57.65l-.53-.46a1.34,1.34,0,0,0,.25-1.08A1.92,1.92,0,0,0,34.23,55a1.79,1.79,0,0,0-1.2-.46,1.25,1.25,0,0,0-1,.47l-.53-.45h0l1.25-1.59a1.34,1.34,0,0,1,.93-.52,1.28,1.28,0,0,1,1,.32L36.23,54a1.48,1.48,0,0,1,.2,2l-1.25,1.59h0M33.07,53.8a2.47,2.47,0,0,1,1.6.62,2.63,2.63,0,0,1,.9,1.56v0l.32-.41a.75.75,0,0,0-.1-1l-1.52-1.3a.67.67,0,0,0-1,.1L33,53.8h.09Z"/><path class="cls-15" d="M50.81,64.6a1.85,1.85,0,0,1-2.58.67,2,2,0,0,1-1-2.55A1.86,1.86,0,0,1,49.78,62a2,2,0,0,1,1,2.56"/><g class="cls-16"><g class="cls-20"><path class="cls-13" d="M50.81,64.6a1.59,1.59,0,0,1-.13.22,2.11,2.11,0,0,0-1.18-2,1.9,1.9,0,0,0-2.45.45,1.52,1.52,0,0,1,.15-.5A1.86,1.86,0,0,1,49.78,62a2,2,0,0,1,1,2.56"/></g></g><path class="cls-18" d="M50.81,64.6a1.85,1.85,0,0,1-2.58.67,2,2,0,0,1-1-2.55s0,0,0,0a2.21,2.21,0,0,0,1.17,1.55,1.85,1.85,0,0,0,2.55-.63,1.68,1.68,0,0,1-.13,1"/><path class="cls-19" d="M51.23,61.32a1.1,1.1,0,0,1,.46,1.44l-.88,1.84a2,2,0,0,0-1-2.55,1.84,1.84,0,0,0-2.58.67l.88-1.84a1,1,0,0,1,1.38-.48Z"/><path class="cls-5" d="M49.24,65.88a2.6,2.6,0,0,1-2.37-1.61,2.08,2.08,0,0,1,0-1.71,2,2,0,0,1,1.3-1.05,2.42,2.42,0,0,1,1.74.22A2.61,2.61,0,0,1,51.14,63a2.1,2.1,0,0,1,0,1.72,2,2,0,0,1-1.87,1.12m-.47-3.73a1.4,1.4,0,0,0-.41.05,1.25,1.25,0,0,0-.85.68,1.33,1.33,0,0,0,0,1.12,1.89,1.89,0,0,0,.88,1,1.51,1.51,0,0,0,2.12-.51,1.36,1.36,0,0,0,0-1.12,1.93,1.93,0,0,0-.89-1,1.87,1.87,0,0,0-.85-.21"/><path class="cls-5" d="M51.11,64.76l-.61-.32h0a1.36,1.36,0,0,0,0-1.12,1.93,1.93,0,0,0-.89-1,1.75,1.75,0,0,0-1.26-.16,1.25,1.25,0,0,0-.85.68l-.62-.32.88-1.84a1.41,1.41,0,0,1,.8-.72,1.33,1.33,0,0,1,1,.08l1.76.92A1.45,1.45,0,0,1,52,62.92Zm-2.34-3.33a2.45,2.45,0,0,1,1.16.3A2.61,2.61,0,0,1,51.14,63v0l.23-.48a.74.74,0,0,0-.31-1l-1.76-.91a.65.65,0,0,0-.53,0,.74.74,0,0,0-.4.36l-.22.48h0a2.25,2.25,0,0,1,.58-.08"/><path class="cls-13" d="M55,63.4A67.2,67.2,0,0,1,31.1,51.73a4,4,0,0,1-.69-5.82,4.22,4.22,0,0,1,5.67-.48,59.57,59.57,0,0,0,21.6,10.18c2.06.47,4,2.49,3.33,4.85C60.25,63,57.25,64,55,63.4"/><path class="cls-13" d="M47.44,32.74a7.9,7.9,0,0,1-2.39.07A29.54,29.54,0,0,1,36.62,30c-2-.89-3.83-.49-4.07-1.14-.34-.95,1.37-1.19,1.37-1.19s.24-.5-2.24-1.56c-2-.85-1.8-2.3.38-2.58,4-.51,7.69,1.28,11,2.65.9.37,1.77.7,2.62,1a8.34,8.34,0,0,0,3.66.37L48,31.21Z"/><g class="cls-3"><g class="cls-21"><path class="cls-5" d="M31.68,26.12c-1.33-.57-1.69-1.39-1.14-2a1.39,1.39,0,0,0,1,1c3.53,1.17,3.39,2.29,3.39,2.29a8.56,8.56,0,0,1-1.69.45,3.65,3.65,0,0,1,.67-.18s.24-.5-2.24-1.56"/></g></g><g class="cls-3"><g class="cls-22"><path class="cls-5" d="M47.44,32.74a7.9,7.9,0,0,1-2.39.07A29.54,29.54,0,0,1,36.62,30c-2-.89-3.83-.49-4.07-1.14a.59.59,0,0,1,0-.28c1.14.6,3.27.25,5,1,2.93,1.33,5.89,1,8.44,1.23a8.32,8.32,0,0,0,2.24-.05l-.15.42Z"/></g></g><path class="cls-5" d="M46.07,33.29c-3,0-6.47-1.46-9.61-2.89a9,9,0,0,0-2.59-.63c-.83-.1-1.49-.18-1.7-.75a1,1,0,0,1,.06-.89,1.82,1.82,0,0,1,1-.72,8.32,8.32,0,0,0-1.7-.89c-1.13-.49-1.72-1.2-1.63-1.95s.87-1.29,2.12-1.45c3.7-.48,7.13,1,10.16,2.23,2.57,1.08,5,2.1,7.12,1.75a.4.4,0,0,1,.47.36.41.41,0,0,1-.34.48c-2.35.39-4.88-.67-7.56-1.79-3.08-1.3-6.26-2.63-9.75-2.18-.92.11-1.37.45-1.4.71s.3.69,1.12,1.05c1.48.63,2.29,1.17,2.47,1.67a.62.62,0,0,1,0,.47.41.41,0,0,1-.31.23,1.8,1.8,0,0,0-1,.46.16.16,0,0,0,0,.14,3.14,3.14,0,0,0,1,.22,9.64,9.64,0,0,1,2.81.7c3.57,1.61,7.61,3.29,10.58,2.7a.41.41,0,0,1,.48.34.42.42,0,0,1-.33.5,7.49,7.49,0,0,1-1.44.13"/><path class="cls-5" d="M33.89,27.25l.24,0h.25a1.7,1.7,0,0,0,.46-.06h0a.19.19,0,0,1,.25.14.21.21,0,0,1-.06.23,2.49,2.49,0,0,1-.54.31l-.27.11a2.29,2.29,0,0,1-.28.09h0a.42.42,0,0,1-.51-.32.44.44,0,0,1,.3-.53.5.5,0,0,1,.17,0"/><path class="cls-5" d="M41.3,32.28a.3.3,0,0,1-.16-.05.35.35,0,0,1-.14-.48,14.81,14.81,0,0,0,1-5.84.35.35,0,0,1,.33-.37.35.35,0,0,1,.35.35,15.3,15.3,0,0,1-1.12,6.2.34.34,0,0,1-.3.19"/><path class="cls-13" d="M58.92,28.82l-.41,1.63-.21.83L54.72,45.63s1,.2,2.25.36l.79.09c2.05.2,4.58.22,5.71-.69,1.67-1.35,3.31-9.21,2.62-12.59-.31-1.54-3.09-2.73-5.1-3.39l-.64-.2c-.84-.26-1.43-.39-1.43-.39"/><g class="cls-3"><g class="cls-23"><path class="cls-5" d="M58.51,30.45l-.21.83L55.45,42.67l-.73,3h.49l.09,0,.19,0,.19,0,.24,0L57,46l.22,0,.17,0,.4,0c2.05.2,4.58.22,5.71-.69,1.38-1.11,2.73-6.64,2.78-10.44-.46,3.23-1.49,6.57-2.53,7.41a4.52,4.52,0,0,1-2.36.7.56.56,0,0,1-.52-.82h0a10,10,0,0,0,.83-2.59,11.82,11.82,0,0,0-1.1-8.44,17.06,17.06,0,0,0-2.06-.75"/></g></g><path class="cls-5" d="M59.83,46.61a29.52,29.52,0,0,1-5.19-.56L54.21,46l4.41-17.65.38.09c.71.16,7,1.68,7.49,4.32A20.93,20.93,0,0,1,66.06,40C65.84,41,65,44.7,63.72,45.73a6.63,6.63,0,0,1-3.89.88M55.22,45.3c2.08.38,6.55.92,8-.25s3.17-8.73,2.47-12.16c-.3-1.5-4-2.93-6.48-3.57Z"/><path class="cls-13" d="M64.46,39.53l-2.77-.39a.53.53,0,0,0-.58.34c-.35.89-1,3-.33,3.86a2.09,2.09,0,0,0,2.55.49c.89-.5,1.4-2.59,1.59-3.63a.56.56,0,0,0-.46-.67"/><g class="cls-3"><g class="cls-24"><path class="cls-5" d="M61.11,39.48c-.35.89-1,3-.33,3.86a2.09,2.09,0,0,0,2.55.49,3.84,3.84,0,0,0,1.23-2.11,2.46,2.46,0,0,1-.78,1,1.5,1.5,0,0,1-2.35-.78s-.26.35-.4.35c-.61,0-.1-2,.19-2.93a1,1,0,0,0-.11.17"/></g></g><path class="cls-5" d="M62.37,44.35a2.31,2.31,0,0,1-1.8-.82c-.78-1-.15-3,.29-4.15a.82.82,0,0,1,.87-.53l2.77.39a.81.81,0,0,1,.55.35.85.85,0,0,1,.14.67c-.28,1.45-.8,3.3-1.73,3.82a2.29,2.29,0,0,1-1.09.27m-.75-4.93a.28.28,0,0,0-.26.17c-.66,1.7-.8,3-.37,3.57a1.83,1.83,0,0,0,2.21.42c.56-.32,1.11-1.6,1.46-3.43a.33.33,0,0,0,0-.22.25.25,0,0,0-.19-.12l-2.77-.39h0"/><path class="cls-5" d="M61.88,44.27l-.11-.12L61.68,44c0-.08-.1-.16-.14-.24a2.69,2.69,0,0,1-.2-.51,3.19,3.19,0,0,1-.1-1.06,5.46,5.46,0,0,1,.17-1c0-.17.09-.33.14-.49a3.33,3.33,0,0,1,.21-.48.09.09,0,0,1,.11,0,.08.08,0,0,1,0,.11h0a2.15,2.15,0,0,0-.14.45c0,.16-.07.32-.1.48a5.3,5.3,0,0,0-.07,1,2.73,2.73,0,0,0,.18.91,1.79,1.79,0,0,0,.2.39,1,1,0,0,0,.12.17l.07.08.06,0a.29.29,0,0,1,.1.39.26.26,0,0,1-.37.11l-.05,0Z"/><path class="cls-25" d="M61.11,59a4.73,4.73,0,0,1-4.72,3.1,5.77,5.77,0,0,1-1.33-.16A67.33,67.33,0,0,1,31.19,50.22a4,4,0,0,1-.69-5.82,4.18,4.18,0,0,1,3.1-1.35,4.25,4.25,0,0,1,2.58.87c.28.21.56.42.85.62A59.14,59.14,0,0,0,56.28,53.7q.73.21,1.5.39c2.06.48,4,2.5,3.33,4.86"/><path class="cls-5" d="M62,31.45l1,.09c.35,0,.69.08,1,.14s.68.11,1,.19a7.31,7.31,0,0,1,1,.31.43.43,0,0,1,.23.55.39.39,0,0,1-.52.24h0a6.53,6.53,0,0,0-.9-.37c-.32-.11-.64-.2-1-.28s-.66-.16-1-.23l-1-.19h0a.22.22,0,0,1,0-.44"/><g class="cls-26"><g class="cls-27"><path class="cls-13" d="M55.62,56.2c-.54-.12-1.08-.25-1.61-.39a65.26,65.26,0,0,1-20.65-9.3l-.91-.63A4.7,4.7,0,0,0,29.68,45a4.61,4.61,0,0,0-3.32,1.37,3.65,3.65,0,0,0-1,2.52,3.77,3.77,0,0,1,.88-1.51A4.57,4.57,0,0,1,29.53,46a4.75,4.75,0,0,1,2.78.88c.3.22.6.43.91.63a65.2,65.2,0,0,0,20.64,9.3l1.61.4c1.9.41,3.69,2,3.71,3.92v0c.72-2.39-1.36-4.43-3.57-4.92"/></g></g><g class="cls-28"><g class="cls-29"><path class="cls-5" d="M59,56c-.66,2.64-2.55,4.48-5.07,4.37-6.38-.27-4.61-4.71-4.48-5.79.1-.82-4-2.68-6.06-1.4-1.8,1.12-4.78.52-6.37-1.43-1.94-2.38-.06-4.43,1.33-5A65.46,65.46,0,0,0,59,56"/></g></g><path class="cls-5" d="M56.78,62.66a6.38,6.38,0,0,1-1.52-.17h0A74.33,74.33,0,0,1,29.55,50.6a4.55,4.55,0,0,1-1.88-3.26,4,4,0,0,1,1.09-3.13,5.08,5.08,0,0,1,6.53-.53A65.37,65.37,0,0,0,58.33,54a5.46,5.46,0,0,1,3.43,2.38,3.62,3.62,0,0,1,.38,3c-.71,2.27-3.08,3.38-5.36,3.38m-.36-.8c2.35.56,5.36-.42,6.09-2.77a3,3,0,0,0-.32-2.43,4.7,4.7,0,0,0-3-2.07A66.29,66.29,0,0,1,35.9,44.21a4.38,4.38,0,0,0-5.66.45,3.32,3.32,0,0,0-.92,2.62,3.93,3.93,0,0,0,1.62,2.8A73.72,73.72,0,0,0,56.42,61.86"/><path class="cls-13" d="M56.31,46.46c-1.37,1.33-2.66,1.95-2.73,4.49,0,1.57.55,2.51-.24,4.65-1.13,3.06-3,4.74-6.35,3.22-2-.93-2-2.79-1.27-4.31A5.65,5.65,0,0,1,47,52.86c-1-1.09-1.84-3-1.21-6.18l0,0a2.2,2.2,0,0,0-1-.67c-2.46-.74-3,.31-3.6,2.11-.18.58-.45,2.36-1.27,3C38.09,52.53,35,53.57,32.64,51a2.22,2.22,0,0,1-.28-3.13,5.77,5.77,0,0,1,2.51-1.7c-.93-6.17,6-6.9,6-6.9S44.26,32.93,45,27.7l13,1a41,41,0,0,1,1.46,8.67c.19,5.2-1.48,7.44-3.16,9.08"/><g class="cls-28"><g class="cls-30"><path class="cls-5" d="M47.15,44.81a4.76,4.76,0,0,0-1.43,1.83,2.2,2.2,0,0,0-1-.67c-2.46-.74-3,.31-3.6,2.11-.18.58-.45,2.36-1.27,3C38.09,52.53,35,53.57,32.64,51a2.23,2.23,0,0,1-.28-3.13c.43,1.56,1.44,3,2.81,3.12,1.91.22,3.5.18,4.58-1.76s.4-4.6,1.22-5.52,2.72-.71,4-.19a8.85,8.85,0,0,1,2.17,1.26"/></g></g><g class="cls-28"><g class="cls-31"><path class="cls-5" d="M56.31,46.46c-1.37,1.33-2.66,1.95-2.73,4.49,0,1.57.55,2.51-.24,4.65-1.13,3.06-3,4.74-6.35,3.22-2-.93-2-2.79-1.27-4.31A3.93,3.93,0,0,0,46,56.65c.74,1.4,3.43,1.68,4.82.47a4.66,4.66,0,0,0,1.74-4.33c-.36-1.86-.89-3.83-.18-5.11.48-.85,2.65-1.29,3.27-2.93.26-.67-1.53-1.25-2.8-1.58a1.92,1.92,0,0,0-1.66.38,1.62,1.62,0,0,1-1.54.25l-6.78-2.54a1.53,1.53,0,0,1-.91-2l.28-.74,1.09-2.82a1.57,1.57,0,0,1,2-.9l6.78,2.54a.92.92,0,0,1,.28.14A1.51,1.51,0,0,1,53,39.33l-.69,1.81c1.69.21,5.15,1,5.25.72a7.64,7.64,0,0,0,.66-4.38,6.31,6.31,0,0,1,.87-.15.72.72,0,0,1,.34.05c.19,5.2-1.48,7.44-3.16,9.08"/></g></g><path class="cls-5" d="M44.17,32.06c-.15.65-.33,1.3-.54,1.93s-.43,1.26-.67,1.88-.51,1.24-.79,1.84-.58,1.2-.92,1.79l-.12.22h-.22c-.18,0-.39.06-.59.1l-.61.15a8.88,8.88,0,0,0-1.16.42,6.43,6.43,0,0,0-2,1.34,4.38,4.38,0,0,0-.71.94,4.62,4.62,0,0,0-.44,1.08,6.13,6.13,0,0,0-.09,2.38l.05.34-.32.13a6.26,6.26,0,0,0-1.27.63,4.15,4.15,0,0,0-1,.88,1.84,1.84,0,0,0-.46,1.11,1.94,1.94,0,0,0,.39,1.14,3.5,3.5,0,0,0,.44.51l.25.24c.08.08.18.14.26.21a4.38,4.38,0,0,0,.58.37,2,2,0,0,0,.3.14l.16.07.16.05c.11,0,.22.07.33.09l.33.06c.11,0,.23,0,.34,0h.34a5.4,5.4,0,0,0,.69-.08,5.54,5.54,0,0,0,.67-.18,5.66,5.66,0,0,0,1.28-.58l.29-.2.29-.2.13-.11.11-.09a2.5,2.5,0,0,0,.18-.24,4.69,4.69,0,0,0,.52-1.25c.07-.23.13-.47.19-.71l.09-.37.06-.2.06-.18a5.6,5.6,0,0,1,.66-1.47,3.17,3.17,0,0,1,.29-.35,1.76,1.76,0,0,1,.37-.29,1.72,1.72,0,0,1,.43-.21,2.42,2.42,0,0,1,.45-.1,4.32,4.32,0,0,1,1.67.17l.19.06.21.07a2.17,2.17,0,0,1,.41.19,2.26,2.26,0,0,1,.37.26l.17.15.08.09,0,0,0,.06.1.15,0,.18a13.87,13.87,0,0,0-.2,1.56A8.74,8.74,0,0,0,46,49.86a6,6,0,0,0,.41,1.46,4.74,4.74,0,0,0,.82,1.25l.29.32-.32.29a5.11,5.11,0,0,0-1.37,2.12,3.38,3.38,0,0,0-.17,1.21,2,2,0,0,0,.38,1.07,2,2,0,0,0,.4.42,2.15,2.15,0,0,0,.24.18,2.2,2.2,0,0,0,.26.15,4.73,4.73,0,0,0,.6.27l.31.11.31.09a3.83,3.83,0,0,0,1.25.15,3.11,3.11,0,0,0,.6-.09,2.92,2.92,0,0,0,.56-.21,4.35,4.35,0,0,0,1.7-1.82,10.23,10.23,0,0,0,.56-1.21,7.1,7.1,0,0,0,.36-1.25,5,5,0,0,0,.07-1.28c0-.43-.09-.88-.13-1.37,0-.24,0-.48,0-.73s0-.24,0-.37,0-.24,0-.36a4.49,4.49,0,0,1,.41-1.46,4.64,4.64,0,0,1,.88-1.24c.34-.36.7-.67,1-1a11.62,11.62,0,0,0,1.81-2c.12-.19.25-.37.36-.56l.31-.58.26-.61a2.23,2.23,0,0,0,.12-.31l.1-.31c0-.11.07-.21.1-.32l.08-.32.07-.33a1.83,1.83,0,0,0,.07-.32c.06-.45.15-.88.17-1.34a24.71,24.71,0,0,0-.27-5.42l-.22-1.35-.27-1.34c0-.23-.09-.45-.15-.68l-.16-.66-.33-1.34h0a.44.44,0,0,1,.85-.21L58.76,30l.17.68c0,.22.1.45.14.68l.28,1.37.23,1.38a25.69,25.69,0,0,1,.27,5.62,13.59,13.59,0,0,1-.18,1.41,2.17,2.17,0,0,1-.07.35l-.08.35-.08.35c0,.12-.08.23-.11.35l-.12.34c0,.11-.07.23-.12.34l-.29.67c-.11.21-.23.42-.34.64s-.27.4-.4.61a12.7,12.7,0,0,1-1.94,2.13c-.35.31-.69.61-1,.92a3.91,3.91,0,0,0-.73,1,3.62,3.62,0,0,0-.33,1.19,1.73,1.73,0,0,0,0,.32c0,.11,0,.22,0,.33s0,.43,0,.65c0,.43.11.9.14,1.38a6.11,6.11,0,0,1-.08,1.48,8.21,8.21,0,0,1-.42,1.41,9.63,9.63,0,0,1-.6,1.31,6.68,6.68,0,0,1-.85,1.22,4.43,4.43,0,0,1-1.22,1,4.35,4.35,0,0,1-.74.28,4.21,4.21,0,0,1-.78.12A5.11,5.11,0,0,1,48,59.64l-.36-.11-.35-.13c-.23-.09-.45-.18-.69-.3l-.34-.2c-.1-.08-.22-.15-.32-.24a3,3,0,0,1-.55-.58,2.9,2.9,0,0,1-.53-1.51A3.92,3.92,0,0,1,45,55a5.57,5.57,0,0,1,.64-1.35,5.86,5.86,0,0,1,1-1.14l0,.61a5.79,5.79,0,0,1-1-1.49A6.29,6.29,0,0,1,45.18,50a8.27,8.27,0,0,1-.08-1.72,13.77,13.77,0,0,1,.21-1.68l.07.33s0,0,0,0l0,0-.05-.05-.1-.09a1.44,1.44,0,0,0-.25-.18l-.27-.13-.15,0-.17,0A3.46,3.46,0,0,0,43,46.18a2.47,2.47,0,0,0-.29.06,1.79,1.79,0,0,0-.24.12c-.08,0-.15.12-.22.17s-.13.15-.19.24A5.13,5.13,0,0,0,41.55,48l-.06.17c0,.06,0,.1,0,.16l-.09.35c-.06.25-.12.5-.19.75a5.64,5.64,0,0,1-.64,1.49,3.07,3.07,0,0,1-.28.35l-.17.16-.16.13a3.88,3.88,0,0,1-.33.23,3.15,3.15,0,0,1-.33.22,6.65,6.65,0,0,1-1.46.67,5.41,5.41,0,0,1-.79.21,5.56,5.56,0,0,1-.82.09h-.41a2.71,2.71,0,0,1-.41,0L35,52.89a2.62,2.62,0,0,1-.4-.11l-.2-.06-.2-.08-.37-.17a5.58,5.58,0,0,1-.7-.45l-.32-.25-.29-.29a3.54,3.54,0,0,1-.53-.62,3,3,0,0,1-.4-.77,2.39,2.39,0,0,1-.14-.88,2.56,2.56,0,0,1,.19-.88,3.25,3.25,0,0,1,.45-.74,4.83,4.83,0,0,1,1.23-1.08,8.28,8.28,0,0,1,1.43-.71l-.27.47a7,7,0,0,1,.1-2.73,5.57,5.57,0,0,1,.53-1.29,5.4,5.4,0,0,1,.84-1.11,7.2,7.2,0,0,1,2.28-1.53,12.24,12.24,0,0,1,1.28-.46l.66-.16c.23-.05.44-.09.69-.12l-.34.23.84-1.77.84-1.79.81-1.8.79-1.81h0a.23.23,0,0,1,.29-.12.21.21,0,0,1,.12.25"/><path class="cls-13" d="M54.5,25.85a1.77,1.77,0,0,0-.06-.17l.09.15Z"/><path class="cls-5" d="M50.94,50.2c-2.45,0-5.14-.68-5.7-2.41a.35.35,0,0,1,.23-.45.36.36,0,0,1,.46.23c.63,1.91,5.29,2.32,7.77,1.56a.37.37,0,0,1,.46.23.37.37,0,0,1-.24.46,10.8,10.8,0,0,1-3,.38"/><path class="cls-5" d="M42.15,46.44h0c-1.45-.08-4.9-1.3-6.18-3a1.93,1.93,0,0,1-.41-1.69.37.37,0,0,1,.71.17,1.26,1.26,0,0,0,.3,1.09c1.09,1.47,4.3,2.65,5.62,2.73a.37.37,0,0,1,.34.39.35.35,0,0,1-.36.33"/><path class="cls-13" d="M40.89,36.26a1.34,1.34,0,0,0,.9,1.69,1.37,1.37,0,0,0,1.72-.89,1.37,1.37,0,0,0-2.62-.8"/><g class="cls-3"><g class="cls-32"><path class="cls-5" d="M40.89,36.26a1.34,1.34,0,0,0,.9,1.69,1.37,1.37,0,0,0,1.72-.89,1.48,1.48,0,0,0,.05-.59,1.4,1.4,0,0,1-1.42.38,1.35,1.35,0,0,1-1-1.11,1.23,1.23,0,0,0-.3.52"/></g></g><path class="cls-5" d="M42.2,38.38a1.82,1.82,0,0,1-.52-.08,1.71,1.71,0,0,1-1.14-2.15A1.74,1.74,0,0,1,42.71,35a1.71,1.71,0,0,1,1.15,2.15,1.69,1.69,0,0,1-.86,1,1.72,1.72,0,0,1-.8.2m-1-2a1,1,0,1,0,1.85-.16,1,1,0,0,0-1.85.16"/><path class="cls-13" d="M42.55,40.29l6.78,2.53a1.58,1.58,0,0,0,2-.89l1.36-3.57a1.54,1.54,0,0,0-.62-1.85l-.28-.14L45,33.84a1.56,1.56,0,0,0-2,.9l-1.08,2.82-.29.74a1.55,1.55,0,0,0,.91,2"/><g class="cls-3"><g class="cls-33"><path class="cls-5" d="M42.55,40.29l6.78,2.53a1.58,1.58,0,0,0,2-.89l1.36-3.57a1.54,1.54,0,0,0-.62-1.85l-.79.18c-1.43,2.74-2.8,3.86-6.42,2.57a7.19,7.19,0,0,1-3-1.7l-.29.74a1.55,1.55,0,0,0,.91,2"/></g></g><path class="cls-5" d="M49.88,43.21a1.87,1.87,0,0,1-.65-.12l-6.79-2.53a1.83,1.83,0,0,1-1.07-2.36l1.36-3.57a1.87,1.87,0,0,1,2.4-1.06l6.78,2.53a1.87,1.87,0,0,1,1,1A1.82,1.82,0,0,1,53,38.47L51.62,42a1.86,1.86,0,0,1-1.74,1.18M44.47,34a1.28,1.28,0,0,0-1.19.81L41.92,38.4A1.25,1.25,0,0,0,42.65,40l6.79,2.53a1.26,1.26,0,0,0,1,0,1.23,1.23,0,0,0,.66-.7l1.37-3.56a1.24,1.24,0,0,0-.74-1.61l-6.78-2.54a1.19,1.19,0,0,0-.45-.08"/><path class="cls-13" d="M42.29,40.16a1.58,1.58,0,0,0,.26.13l6.78,2.53A1.58,1.58,0,0,0,51,42.47a1.53,1.53,0,0,0,.35-.54L52,40.34l.2-.52.56-1.46a1.52,1.52,0,0,0-.91-2l-1.46-.55A1.53,1.53,0,0,1,51,37.69l-.74,1.92-.63,1.64a1.56,1.56,0,0,1-2,.9Z"/><g class="cls-3"><g class="cls-34"><path class="cls-5" d="M42.29,40.16a1.58,1.58,0,0,0,.26.13l6.78,2.53a1.56,1.56,0,0,0,2-.89l.81-2.11a1.44,1.44,0,0,1-1.3.52,1.06,1.06,0,0,1-.6-.73l-.63,1.64a1.56,1.56,0,0,1-2,.9Z"/></g></g><path class="cls-5" d="M49.88,43.21a1.82,1.82,0,0,1-.65-.12l-6.78-2.53a1.87,1.87,0,0,1-.32-.15l.26-.52,5.32,2a1.3,1.3,0,0,0,1,0,1.28,1.28,0,0,0,.67-.7l1.36-3.56a1.25,1.25,0,0,0-.52-1.52l.25-.51,1.47.54a1.87,1.87,0,0,1,1,1A1.82,1.82,0,0,1,53,38.47L51.62,42a1.83,1.83,0,0,1-1,1,1.9,1.9,0,0,1-.77.16m-.94-.84.5.18a1.26,1.26,0,0,0,1,0,1.23,1.23,0,0,0,.66-.7l1.37-3.56a1.23,1.23,0,0,0,0-1,1.28,1.28,0,0,0-.71-.66l-.45-.16a1.79,1.79,0,0,1,0,1.31l-1.37,3.56a1.86,1.86,0,0,1-1,1"/><path class="cls-35" d="M47.62,38.5c0,.13-.27,1.27-.27,1.27l.77.28a1.19,1.19,0,0,0,1.4-.85,1.17,1.17,0,0,0-.5-1.55l-.76-.28s-.56.92-.64,1.13"/><g class="cls-3"><g class="cls-36"><path class="cls-5" d="M47.62,38.5c0,.13-.27,1.27-.27,1.27l.77.28a1.19,1.19,0,0,0,1.4-.85,1.17,1.17,0,0,0-.5-1.55l-.76-.28s-.56.92-.64,1.13"/></g></g><path class="cls-5" d="M48.4,40.31a1.13,1.13,0,0,1-.36-.06l-.94-.34,0-.18c0-.27.22-1.17.27-1.31s.6-1.07.66-1.16l.09-.15.94.34a1.36,1.36,0,0,1,.62,1.82,1.65,1.65,0,0,1-.69.86,1.23,1.23,0,0,1-.63.18m-.8-.68.59.21a.71.71,0,0,0,.61-.08,1.22,1.22,0,0,0,.51-.64,1,1,0,0,0-.37-1.27l-.59-.21c-.21.34-.48.81-.53.93s-.12.57-.22,1.06"/><path class="cls-35" d="M46.86,38.22a1.17,1.17,0,0,0,.49,1.55,1.19,1.19,0,0,0,1.41-.85,1.17,1.17,0,0,0-.5-1.55,1.18,1.18,0,0,0-1.4.85"/><g class="cls-3"><g class="cls-37"><path class="cls-5" d="M47.35,39.77a1.19,1.19,0,0,0,1.41-.85,1.5,1.5,0,0,0,.09-.46,1.1,1.1,0,0,1-1.27.59A1.05,1.05,0,0,1,47,38a1.23,1.23,0,0,0-.12.26,1.17,1.17,0,0,0,.49,1.55"/></g></g><g class="cls-16"><g class="cls-38"><path class="cls-13" d="M46.77,38.54a1.14,1.14,0,0,1,1.34-.7,1.06,1.06,0,0,1,.58,1.22.61.61,0,0,0,.07-.14,1,1,0,1,0-1.9-.7,1.41,1.41,0,0,0-.09.32"/></g></g><path class="cls-5" d="M47.64,40a1.09,1.09,0,0,1-.36-.06,1.37,1.37,0,0,1-.63-1.83,1.39,1.39,0,0,1,1.68-1A1.36,1.36,0,0,1,49,39a1.7,1.7,0,0,1-.69.86,1.23,1.23,0,0,1-.63.18m-.58-1.73a1,1,0,0,0,.37,1.26.71.71,0,0,0,.61-.08,1.22,1.22,0,0,0,.51-.64,1,1,0,0,0-.37-1.27c-.41-.15-.91.18-1.12.73"/><path class="cls-5" d="M44.67,41.27h-.08a.23.23,0,0,1-.13-.28l.8-2.25a.25.25,0,0,0,0-.25l-.56-.73a.7.7,0,0,1-.1-.68l1.13-3A.21.21,0,0,1,46,34a.2.2,0,0,1,.13.28l-1.13,3a.28.28,0,0,0,0,.26l.56.73a.71.71,0,0,1,.11.66l-.81,2.24a.21.21,0,0,1-.2.15"/><path class="cls-13" d="M58.8,40.28a.91.91,0,0,1,1.15,1,2.17,2.17,0,0,1-.07.24,2,2,0,0,1-1.2,1.2s-2.72.82-7.5-1.19a.9.9,0,0,1-.55-.72,1.58,1.58,0,0,1,.83-1.71.91.91,0,0,1,.82,0c1,.5,3.94,1.81,6.52,1.15"/><g class="cls-3"><g class="cls-39"><path class="cls-5" d="M50.75,41.38c5,2.24,7.93,1.37,7.93,1.37a2,2,0,0,0,1.2-1.2.65.65,0,0,0,0-.13,1.86,1.86,0,0,1-.77.5s-2.61.78-7.19-1.07a1.33,1.33,0,0,1-.84-1.47v0a1.93,1.93,0,0,0-.37,2"/></g></g><path class="cls-5" d="M57.1,43.28A15.82,15.82,0,0,1,51,41.87a1.14,1.14,0,0,1-.7-.89,2,2,0,0,1,1.06-2.2,1.22,1.22,0,0,1,1.07,0c.87.44,3.89,1.83,6.43,1.11a1.14,1.14,0,0,1,1,.19,1.16,1.16,0,0,1,.46.92,1.84,1.84,0,0,1-.12.66,2.31,2.31,0,0,1-1.44,1.43,6.1,6.1,0,0,1-1.68.18m-5.23-3.9a.54.54,0,0,0-.21,0A1.24,1.24,0,0,0,51,40.87a.47.47,0,0,0,.27.34c4.6,1.94,7.28,1.2,7.3,1.2a1.62,1.62,0,0,0,1-1,1.41,1.41,0,0,0,.07-.41.44.44,0,0,0-.17-.35.47.47,0,0,0-.4-.07c-2.8.8-6-.68-7-1.16a.46.46,0,0,0-.2,0"/><path class="cls-5" d="M47.34,45l-.09.06-.11.09-.2.2a3.83,3.83,0,0,0-.33.46,5,5,0,0,0-.26.52l-.11.27-.09.28h0a.44.44,0,1,1-.83-.27l0-.07.16-.29.17-.29c.13-.18.26-.37.41-.54a3.63,3.63,0,0,1,.49-.47,2.92,2.92,0,0,1,.28-.21l.16-.08.18-.08a.22.22,0,0,1,.28.13.24.24,0,0,1-.08.25Z"/><g class="cls-3"><g class="cls-40"><path class="cls-5" d="M52.4,43v.07h.07L52.4,43"/></g></g><path class="cls-13" d="M57.36,29.06a49.54,49.54,0,0,1,6.07,1.86c1.76.69,4.88,2,6,4.93a9.91,9.91,0,0,1-.09,5.92L65,41.34s-1.16-4.15-6.33-4"/><g class="cls-28"><g class="cls-41"><path class="cls-5" d="M69.34,41.77,65,41.34s-1.16-4.15-6.33-4c-.85-.11-1.61.49-1.59.14,0-.67,1.11-1.14.89-1.44-.53-.72-.88-1.62-.5-1.57,3.34.39,5,3.37,8,3.56s4.16,1.48,4.16,1.48a10.18,10.18,0,0,0,.33-1.32,11.22,11.22,0,0,1-.52,3.6"/></g></g><path class="cls-5" d="M69.65,42.23l-5-.49-.08-.28c0-.16-1.14-3.82-5.89-3.7a.44.44,0,0,1-.46-.42.45.45,0,0,1,.43-.45,6.58,6.58,0,0,1,6.66,4L69,41.3A9.32,9.32,0,0,0,69,36c-1.1-2.85-4.36-4.13-5.75-4.68a50.7,50.7,0,0,0-6-1.84.44.44,0,1,1,.19-.85,50.91,50.91,0,0,1,6.14,1.89c1.5.58,5,2,6.25,5.18a10.27,10.27,0,0,1-.08,6.21Z"/><path class="cls-5" d="M62.37,38.55a.37.37,0,0,1-.36-.27c0-.14-.81-3.35.61-5.36a3.64,3.64,0,0,1,2.7-1.5.36.36,0,0,1,.41.32.37.37,0,0,1-.32.4,3,3,0,0,0-2.19,1.19c-1.22,1.74-.5,4.74-.5,4.77a.36.36,0,0,1-.26.44h-.09"/><path class="cls-13" d="M71.22,40.38A2.46,2.46,0,0,1,69,42.28a14.41,14.41,0,0,1-3.84-.42A3.16,3.16,0,0,1,63,42a1.29,1.29,0,0,1-1-1.25,2.87,2.87,0,0,1,1.49-2.22c1.76-1.18,1.32-2.49,2.76-2.9s4.49,1.6,5,2.94a3.16,3.16,0,0,1,0,1.83"/><g class="cls-28"><g class="cls-42"><path class="cls-5" d="M71.22,40.38A2.46,2.46,0,0,1,69,42.28a14.41,14.41,0,0,1-3.84-.42A3.16,3.16,0,0,1,63,42a1.29,1.29,0,0,1-1-1.25,1.78,1.78,0,0,0,1.14.57c1.34.18,2.13-.85,1.61-1.21,0,0-.52-.43.34-.66s.81-.6,1.27-.52A10,10,0,0,1,69,40.1a2.44,2.44,0,0,0,2.23.28"/></g></g><path class="cls-5" d="M68.46,42.78a15.54,15.54,0,0,1-3.26-.41,3.73,3.73,0,0,1-2.36.07A1.83,1.83,0,0,1,61.52,41a3.19,3.19,0,0,1,1.69-2.86,3.74,3.74,0,0,0,1.33-1.54,2.45,2.45,0,0,1,1.57-1.43c1.7-.48,5,1.66,5.56,3.25a3.64,3.64,0,0,1-.43,3.1A2.84,2.84,0,0,1,69,42.77h-.58m-3.35-1.43.18,0A13.77,13.77,0,0,0,69,41.8,1.82,1.82,0,0,0,70.42,41a2.67,2.67,0,0,0,.32-2.24c-.39-1.12-3.19-3-4.36-2.63-.53.15-.69.43-1,1a4.63,4.63,0,0,1-1.64,1.88,2.28,2.28,0,0,0-1.26,1.93.81.81,0,0,0,.65.67,2.62,2.62,0,0,0,1.8-.09Z"/><path class="cls-5" d="M64.06,39.56a1.22,1.22,0,0,1,.27,0,1.09,1.09,0,0,1,.25,0,1.44,1.44,0,0,1,.5.21,1.31,1.31,0,0,1,.38.43,1.28,1.28,0,0,1,.11.24,2.41,2.41,0,0,1,.08.25,1.6,1.6,0,0,1,0,.54,1.38,1.38,0,0,1-.61,1,2.55,2.55,0,0,1-.54.24h0a.49.49,0,0,1-.61-.33.47.47,0,0,1,.33-.6l.07,0a.69.69,0,0,0,.47-.21.73.73,0,0,0,.13-.54,1,1,0,0,0,0-.17c0-.06,0-.12,0-.16a.46.46,0,0,0-.16-.23.83.83,0,0,0-.27-.17,1.59,1.59,0,0,0-.35-.08h0a.24.24,0,0,1,0-.48"/><path class="cls-5" d="M66.19,36.76a3.08,3.08,0,0,0-.22.92.86.86,0,0,0,.2.7.81.81,0,0,0,.31.19l.48.19c.32.13.66.24,1,.42l.25.15.21.13.44.23a5.33,5.33,0,0,0,.9.37,1.79,1.79,0,0,0,.82.11.43.43,0,0,0,.24-.13.66.66,0,0,0,.14-.29v0a.38.38,0,0,1,.44-.27.37.37,0,0,1,.28.42,1.42,1.42,0,0,1-.27.64,1.17,1.17,0,0,1-.65.39,1.65,1.65,0,0,1-.66,0,2.85,2.85,0,0,1-.58-.12,7.17,7.17,0,0,1-1-.42L68,40.13,67.79,40l-.2-.12c-.27-.14-.59-.27-.91-.41l-.49-.21a1.58,1.58,0,0,1-.54-.4,1.31,1.31,0,0,1-.29-.62,1.88,1.88,0,0,1,0-.63,2.64,2.64,0,0,1,.49-1,.19.19,0,0,1,.26,0,.21.21,0,0,1,.06.21Z"/><path class="cls-13" d="M39.06,25.22C46,39.34,66.18,30.56,61,16.33c-6.74-14.62-27.61-5.52-22,8.89"/><path class="cls-13" d="M39.06,25.22C46,39.34,66.18,30.56,61,16.33c-6.74-14.62-27.61-5.52-22,8.89"/><path class="cls-13" d="M39.06,25.22C46,39.34,66.18,30.56,61,16.33c-6.74-14.62-27.61-5.52-22,8.89"/><path class="cls-5" d="M49.79,32.69A11.85,11.85,0,0,1,46,32.07a12.63,12.63,0,0,1-7.22-6.72v0a12,12,0,0,1,.13-9.8,12.34,12.34,0,0,1,6.45-5.95,12.21,12.21,0,0,1,8.75-.33,12.59,12.59,0,0,1,7.22,7v0c2.75,7.6-1.55,13.35-6.7,15.48a12.68,12.68,0,0,1-4.84,1M39.34,25.1c3.46,7,10,8.11,15,6a11.18,11.18,0,0,0,6.36-14.69C57.4,9.19,50.54,8.1,45.59,10.15s-9.1,7.63-6.25,15"/><g class="cls-3"><g class="cls-43"><path class="cls-5" d="M39.06,25.22c5.75,12.3,23.49,7.55,22.78-5.45-1.15,4.09-2.62,4.13-5,6.06-7.44,6.36-17.69.34-18.31-8.18a11.62,11.62,0,0,0,.56,7.57"/></g></g><path class="cls-44" d="M49.79,32.81A11.82,11.82,0,0,1,46,32.19a12.81,12.81,0,0,1-7.3-6.78v0a12.1,12.1,0,0,1,.14-9.89A12.79,12.79,0,0,1,54.15,9.13a12.78,12.78,0,0,1,7.29,7v0a12.16,12.16,0,0,1-.33,9.74,12.41,12.41,0,0,1-6.44,5.9,12.93,12.93,0,0,1-4.89,1M39.46,25.05c3.42,7,9.94,8,14.88,6a11.08,11.08,0,0,0,6.29-14.54c-3.31-7.17-10.09-8.26-15-6.23s-9,7.55-6.18,14.79"/><path class="cls-5" d="M49.79,32.81A11.82,11.82,0,0,1,46,32.19a12.81,12.81,0,0,1-7.3-6.78v0a12.1,12.1,0,0,1,.14-9.89A12.79,12.79,0,0,1,54.15,9.13a12.78,12.78,0,0,1,7.29,7v0a12.16,12.16,0,0,1-.33,9.74,12.41,12.41,0,0,1-6.44,5.9,12.93,12.93,0,0,1-4.89,1M39.46,25.05c3.42,7,9.94,8,14.88,6a11.08,11.08,0,0,0,6.29-14.54c-3.31-7.17-10.09-8.26-15-6.23s-9,7.55-6.18,14.79"/><path class="cls-5" d="M40.59,27.81c10.88,8.62,23-3.64,15.12-12.87-9.44-9.81-23.28,1.42-15.12,12.87"/><path class="cls-45" d="M38.59,19.29C36.74,31.6,54.44,35.17,58,24.19c-6.68,5.81-16.93,1.53-19.41-4.9"/><path class="cls-5" d="M48.63,32.21a10.06,10.06,0,0,1-3.89-.76,11.52,11.52,0,0,1-6-6.11h0c-2.19-4.88-.64-12.1,5.17-15.08l0,0a12.24,12.24,0,0,1,9.53,1.1,11.91,11.91,0,0,1,5.91,7.4A11.11,11.11,0,0,1,48.63,32.21M39.32,25.1c3,6.49,8.61,7.3,12.53,6a10.38,10.38,0,0,0,7-12.25,11.32,11.32,0,0,0-5.62-7,11.65,11.65,0,0,0-9-1.06c-5.5,2.83-7,9.68-4.89,14.31"/><path class="cls-5" d="M48.32,31.17a12.92,12.92,0,0,1-8-3l0,0,0-.05a12.16,12.16,0,0,1-2.47-8.6,10,10,0,0,1,10.56-8.68A11.81,11.81,0,0,1,56,14.64l0,0a10.13,10.13,0,0,1,2.6,7.2,9.72,9.72,0,0,1-2.84,6.21,10.56,10.56,0,0,1-6.89,3.09h-.6m-7.41-3.66c5.53,4.34,11.15,3.11,14.27-.05,2.84-2.87,4-7.76.2-12.23C50.72,10.39,45.27,11,41.93,13.65s-5.07,8.13-1,13.86"/><path class="cls-13" d="M63,24.92c-1.54,5.32-7.07,4.24-6.12-1,1.42-5.64,7.32-4.48,6.12,1"/><g class="cls-3"><g class="cls-46"><path class="cls-5" d="M58.91,28.39c-1.65-.32-2.6-2.49-2-4.73.73,2.53,3.8-1.07,4.13-2.18,4.15,1.64.9,7.54-2.14,6.91"/></g></g><path class="cls-5" d="M59.4,28.85a3.3,3.3,0,0,1-.64-.07c-1.55-.36-2.87-2-2.34-4.92v0c.78-3.12,3-4.36,4.68-4,1.57.36,3,2.12,2.29,5.14v0c-.78,2.69-2.5,3.81-4,3.81M57.28,24c-.42,2.33.54,3.64,1.68,3.9s2.84-.58,3.59-3.12c.53-2.43-.48-3.83-1.64-4.1s-3,.74-3.63,3.32m5.69.89Z"/><path class="cls-13" d="M63.15,25.25c-1.26,4.31-5.42,3.57-4.64-.65,1.13-4.63,5.65-3.82,4.64.65"/><path class="cls-5" d="M60.33,28.5a1.75,1.75,0,0,1-.46-.05c-1.17-.27-2.15-1.58-1.72-3.92v0c.64-2.59,2.33-3.63,3.68-3.32,1.19.27,2.23,1.68,1.67,4.14v0c-.65,2.23-2,3.15-3.17,3.15m-1.46-3.83c-.34,1.86.34,2.89,1.16,3.08s2.15-.52,2.76-2.59c.44-2-.27-3.07-1.13-3.27s-2.27.65-2.79,2.78m4.28.58Z"/><g class="cls-11"><g class="cls-47"><path class="cls-13" d="M56.1,21.5c-.91,2.1-3.34,1.11-2.86-.83.75-2.42,3.63-1.3,2.86.83"/></g></g><g class="cls-11"><g class="cls-48"><path class="cls-13" d="M54.31,24.75a.62.62,0,1,1-1.12-.52.62.62,0,1,1,1.12.52"/></g></g><g class="cls-11"><g class="cls-49"><path class="cls-13" d="M40,20.42c-.38-8.71,8.72-8.71,11.2-6.57-5.79-.32-8.77,2.87-11.2,6.57"/></g></g><g class="cls-3"><g class="cls-50"><path class="cls-5" d="M58.16,25.56a4,4,0,0,1,.46-1.82c.42,3.07,3.62,2.13,4.59.09.11,4.47-4.68,6-5.05,1.73"/></g></g></svg>