<svg id="Layer_1" data-name="Layer 1" xmlns="http://www.w3.org/2000/svg" xmlns:xlink="http://www.w3.org/1999/xlink" viewBox="0 0 162 90.72"><defs><style>.cls-1{fill:none;}.cls-2{clip-path:url(#clip-path);}.cls-3{fill:url(#radial-gradient);}.cls-4{clip-path:url(#clip-path-2);}.cls-5{fill:url(#radial-gradient-2);}.cls-6{clip-path:url(#clip-path-3);}.cls-7{fill:url(#radial-gradient-3);}.cls-8{clip-path:url(#clip-path-4);}.cls-9{fill:url(#radial-gradient-4);}.cls-10{clip-path:url(#clip-path-5);}.cls-11{fill:url(#radial-gradient-5);}.cls-12{clip-path:url(#clip-path-6);}.cls-13{fill:url(#radial-gradient-6);}.cls-14{clip-path:url(#clip-path-7);}.cls-15{fill:url(#radial-gradient-7);}.cls-16{clip-path:url(#clip-path-8);}.cls-17{fill:url(#radial-gradient-8);}.cls-18{clip-path:url(#clip-path-9);}.cls-19{fill:url(#radial-gradient-9);}.cls-20{clip-path:url(#clip-path-10);}.cls-21{fill:url(#radial-gradient-10);}</style><clipPath id="clip-path"><path class="cls-1" d="M83,64.18c-26.66-9-44.74-21.54-42.28-28.88s24.36-6.6,51,2.36,44.57,21.58,42.11,28.91c-1.11,3.31-6.15,5-13.8,5-9.28,0-22.42-2.44-37.05-7.36M23,29.37C19.75,39.13,45.84,56.69,81.31,68.6s66.88,13.66,70.16,3.9S128.65,45.18,93.18,33.28c-20-6.73-38.79-10.22-51.89-10.22-10.09,0-16.84,2.07-18.27,6.31"/></clipPath><radialGradient id="radial-gradient" cx="444.58" cy="30.76" r="1" gradientTransform="matrix(0, 65.96, 65.96, 0, -1955.58, -29242.89)" gradientUnits="userSpaceOnUse"><stop offset="0" stop-color="#fbab2e"/><stop offset="0.39" stop-color="#ec7469"/><stop offset="0.76" stop-color="#9f2f86"/><stop offset="1" stop-color="#69164f"/></radialGradient><clipPath id="clip-path-2"><path class="cls-1" d="M56.93,39.24l-.15.48a52.82,52.82,0,0,0,16,5.67,2.49,2.49,0,0,0-.27-2.83,8,8,0,0,0-2.38-1.85,49.67,49.67,0,0,1-4.33-3c-.7-.54-1.38-1.09-2-1.67-.46-.39-1.21-1-1.28-1.63a.88.88,0,0,1,0-.4.6.6,0,0,1,.24-.32.77.77,0,0,1,.56-.06,8,8,0,0,1,2.92,1.41c.95.61,1.86,1.27,2.78,1.93a28.25,28.25,0,0,0,5.74,3.54l.06,0a31.81,31.81,0,0,0,5.88,1.55A25.18,25.18,0,0,1,89,45c2.46,1.55,4.39,3.8,6.64,5.64s5.1,3.32,8,2.85c1-1-.28-2.68-1.59-3.19s-2.94-.75-3.59-2A1.44,1.44,0,0,1,99.89,47a4,4,0,0,1,2,.63C105.55,49.56,109,52,113,53c3,.73,6.12.64,8.94,1.69A33.09,33.09,0,0,0,122,46l-.21-.23c-5.26-5.26-12.73-7.53-19.87-9.61a9,9,0,0,0-2.11-.34,1.24,1.24,0,0,0-.42,2.43,35.08,35.08,0,0,1,9.47,4.35,1.25,1.25,0,0,1-.28,2.24,8.64,8.64,0,0,1-5.6-.53c-2.46-1-4.62-2.7-7.14-3.56C93,39.81,89.94,40,87,39.23a37,37,0,0,1-7.16-3,133.24,133.24,0,0,0-17.74-6.75,33.65,33.65,0,0,0-5.2,9.75"/></clipPath><radialGradient id="radial-gradient-2" cx="440.6" cy="29.48" r="1" gradientTransform="matrix(0, 41.64, 41.64, 0, -1126.38, -18287.17)" gradientUnits="userSpaceOnUse"><stop offset="0" stop-color="#d97c47"/><stop offset="0.77" stop-color="#8c1d6a"/><stop offset="1" stop-color="#69164f"/></radialGradient><clipPath id="clip-path-3"><path class="cls-1" d="M62.13,29.49a133.24,133.24,0,0,1,17.74,6.75,37,37,0,0,0,7.16,3c2.91.72,6,.58,8.85,1.55,2.52.86,4.68,2.54,7.14,3.56a8.64,8.64,0,0,0,5.6.53,1.25,1.25,0,0,0,.28-2.24,35.08,35.08,0,0,0-9.47-4.35,1.24,1.24,0,0,1,.42-2.43,9,9,0,0,1,2.11.34c7.14,2.08,14.61,4.35,19.87,9.61L122,46a33.11,33.11,0,0,0-1.5-6.71c-4.11-2.3-8.85-3.71-13.4-5.11A333.52,333.52,0,0,1,71.69,21.05a33.32,33.32,0,0,0-9.56,8.44"/></clipPath><radialGradient id="radial-gradient-3" cx="440.6" cy="29.48" r="1" gradientTransform="matrix(0, 41.64, 41.64, 0, -1132.63, -18296.76)" gradientUnits="userSpaceOnUse"><stop offset="0" stop-color="#ec7469"/><stop offset="0.82" stop-color="#9f2f86"/><stop offset="1" stop-color="#9f2f86"/></radialGradient><clipPath id="clip-path-4"><path class="cls-1" d="M71.69,21.05a333.52,333.52,0,0,0,35.45,13.16c4.55,1.4,9.29,2.81,13.4,5.11a33.78,33.78,0,0,0-5.3-9.92,51.14,51.14,0,0,1-5.58-1.27A132,132,0,0,1,82,17.07a33.83,33.83,0,0,0-10.35,4"/></clipPath><radialGradient id="radial-gradient-4" cx="440.6" cy="29.48" r="1" gradientTransform="matrix(0, 41.64, 41.64, 0, -1134.36, -18304.94)" xlink:href="#radial-gradient-2"/><clipPath id="clip-path-5"><path class="cls-1" d="M82,17.07a132,132,0,0,0,27.62,11.06,51.14,51.14,0,0,0,5.58,1.27A33.47,33.47,0,0,0,82,17.07"/></clipPath><radialGradient id="radial-gradient-5" cx="440.6" cy="29.48" gradientTransform="matrix(0, 41.64, 41.64, 0, -1137.42, -18312.41)" xlink:href="#radial-gradient-3"/><clipPath id="clip-path-6"><path class="cls-1" d="M56.91,60.58c7.17,5.91,15.63,10.3,24.8,11.3a1.4,1.4,0,0,0,1.1-.18c.53-.44.17-1.34-.38-1.77s-1.26-.7-1.58-1.32a1.33,1.33,0,0,1-.11-.3A226.28,226.28,0,0,1,56.32,58.6c.19.72.35,1.27.59,2"/></clipPath><radialGradient id="radial-gradient-6" cx="440.45" cy="29.43" gradientTransform="matrix(0, 41.08, 41.08, 0, -1102.98, -17995.13)" xlink:href="#radial-gradient-3"/><clipPath id="clip-path-7"><path class="cls-1" d="M71.93,52.08a1.22,1.22,0,0,0-.62,1c0,.6.52.94,1,1.21l3.79,2.23a5.59,5.59,0,0,1,2.28,2v0a1.64,1.64,0,0,1-2,2.28c-4-1.22-7.49-4-11.4-5.57a55,55,0,0,0-7.84-2.13,151.39,151.39,0,0,0,26,11.15,140.1,140.1,0,0,0,31.4,7,32.78,32.78,0,0,0,4.21-6.5,10.51,10.51,0,0,1-1.72.49c-5,1-10.2-.51-15.08-2.12-2.8-.93-5.59-1.89-8.3-3C87.16,57.33,81,53.33,74,52A5.29,5.29,0,0,0,73,51.82a2,2,0,0,0-1.06.26"/></clipPath><radialGradient id="radial-gradient-7" cx="440.58" cy="29.47" r="1" gradientTransform="matrix(0, 41.56, 41.56, 0, -1105.92, -18233.11)" xlink:href="#radial-gradient-2"/><clipPath id="clip-path-8"><path class="cls-1" d="M90.67,73.27c2.81,2.23,6.78,2,10.35,1.67l2.08-.2c-4.72-1.1-9.63-2.41-14.66-3.94a12.5,12.5,0,0,0,2.23,2.47"/></clipPath><radialGradient id="radial-gradient-8" cx="440.6" cy="29.48" r="1" gradientTransform="matrix(0, 41.64, 41.64, 0, -1090.21, -18267.45)" gradientUnits="userSpaceOnUse"><stop offset="0" stop-color="#ec7469"/><stop offset="1" stop-color="#9f2f86"/></radialGradient><clipPath id="clip-path-9"><path class="cls-1" d="M62.78,33.7a.6.6,0,0,0-.24.32.88.88,0,0,0,0,.4c.07.64.82,1.24,1.28,1.63.66.58,1.34,1.13,2,1.67a49.67,49.67,0,0,0,4.33,3,8,8,0,0,1,2.38,1.85,2.49,2.49,0,0,1,.27,2.83,52.82,52.82,0,0,1-16-5.67,33.64,33.64,0,0,0-1.67,12.1c.66.4,1.39.91,2.09,1.3A54.54,54.54,0,0,1,65,55.24c3.91,1.62,7.39,4.35,11.4,5.57a1.64,1.64,0,0,0,2-2.28v0a5.59,5.59,0,0,0-2.28-2L72.3,54.31c-.47-.27-1-.61-1-1.21a1.22,1.22,0,0,1,.62-1A3,3,0,0,1,74,52c7,1.38,13.12,5.38,19.66,8.18,2.71,1.15,5.5,2.11,8.3,3,4.88,1.61,10,3.16,15.08,2.12a10.51,10.51,0,0,0,1.72-.49,33.91,33.91,0,0,0,1.71-4.16,32.55,32.55,0,0,0,1.42-6c-2.82-1-6-1-8.94-1.69-4-1-7.44-3.44-11.07-5.37a4,4,0,0,0-2-.63,1.44,1.44,0,0,0-1.43,1.31c.65,1.25,2.28,1.49,3.59,2s2.55,2.16,1.59,3.19c-2.87.47-5.71-1-8-2.85S91.49,46.56,89,45a25.18,25.18,0,0,0-8.31-2.92,31.81,31.81,0,0,1-5.88-1.55l-.06,0A28.25,28.25,0,0,1,69,37c-.92-.66-1.83-1.32-2.78-1.93a8,8,0,0,0-2.92-1.41,1,1,0,0,0-.24,0,.54.54,0,0,0-.32.09"/></clipPath><radialGradient id="radial-gradient-9" cx="440.6" cy="29.48" gradientTransform="matrix(0, 41.65, 41.65, 0, -1119.86, -18282.99)" xlink:href="#radial-gradient-3"/><clipPath id="clip-path-10"><path class="cls-1" d="M78,81.73a33.49,33.49,0,0,0,31.63-5.54c-2.14-.42-4.32-.93-6.55-1.45l-2.08.2c-3.57.33-7.54.56-10.35-1.67a12.5,12.5,0,0,1-2.23-2.47q-3.33-1-6.72-2.16l-1-.33a1.33,1.33,0,0,0,.11.3c.32.62,1,.89,1.58,1.32s.91,1.33.38,1.77a1.4,1.4,0,0,1-1.1.18c-9.17-1-17.63-5.39-24.8-11.3A33.49,33.49,0,0,0,78,81.73"/></clipPath><radialGradient id="radial-gradient-10" cx="440.6" cy="29.48" r="1" gradientTransform="matrix(0, 41.65, 41.65, 0, -1101.46, -18257.59)" xlink:href="#radial-gradient-2"/></defs><title>FABLAB ფლაერის სამუშაო ვერსია ბოლო ვერსია bolo</title><g class="cls-2"><rect class="cls-3" x="49.67" y="-17.93" width="75.15" height="141.18" transform="translate(24.38 132.87) rotate(-83.03)"/></g><g class="cls-4"><rect class="cls-5" x="73.09" y="8" width="32.98" height="68.17" transform="translate(36.93 125.89) rotate(-83.03)"/></g><g class="cls-6"><rect class="cls-7" x="76.05" y="2.29" width="32.07" height="62.5" transform="translate(47.62 120.87) rotate(-83.03)"/></g><g class="cls-8"><rect class="cls-9" x="82.1" y="2.6" width="28.02" height="51.19" transform="translate(56.46 120.17) rotate(-83.03)"/></g><g class="cls-10"><rect class="cls-11" x="90.17" y="5.63" width="16.94" height="34.53" transform="translate(63.94 118.03) rotate(-83.03)"/></g><g class="cls-12"><rect class="cls-13" x="61.56" y="51.05" width="16.53" height="28.44" transform="translate(-3.44 126.66) rotate(-83.03)"/></g><g class="cls-14"><rect class="cls-15" x="74.58" y="29.79" width="26.82" height="63.54" transform="translate(16.2 141.42) rotate(-83.03)"/></g><g class="cls-16"><rect class="cls-17" x="92.55" y="65.59" width="6.45" height="15.12" transform="translate(11.54 159.33) rotate(-83.03)"/></g><g class="cls-18"><rect class="cls-19" x="68.11" y="14.71" width="40.61" height="70.52" transform="translate(28.08 131.67) rotate(-83.03)"/></g><g class="cls-20"><rect class="cls-21" x="67.71" y="45.36" width="31.15" height="55.37" transform="translate(0.67 146.84) rotate(-83.03)"/></g></svg>